<?xml version="1.0" encoding="UTF-8"?>
<svg id="b" data-name="Layer 2" xmlns="http://www.w3.org/2000/svg" viewBox="0 0 168.44 123.99">
  <g id="c" data-name="Layer 1">
    <g>
      <path d="M20.97,109.36c17.55-5.04,39.46-8.03,63.23-8.01,26.67.02,51,3.83,69.44,10.07,11.55-12.24,15.86-36.67,14.6-46.86-2.19-17.64-1.53-34.26-24.55-45.18-5.65-2.68-10.2-9.43-15.11-13.16C121.8,1.09,116.39-.46,107.79.11c-10.86.71-14.87,4.86-23.23,10.3-4.21,2.74-4.63,1.11-8.79.25-5.75-1.19-12.63,2.22-16.99,5.8-4.18,3.43-7.03,9.11-11.93,11.49-2.74,1.33-4.76.71-7.51.5C12.64,26.41,2.83,40.32,2.06,45.85c-1.33,9.64-3.5,25.44-.7,35.05,3.82,13.11,11.28,23.1,19.61,28.46Z" fill="#235a30"/>
      <path d="M156.36,40.37c-13.62-2.12-20.9-8.2-26.14-12.15-4.52-3.41-8.5-7.49-13.08-10.85-4.34-3.19-9.85-6.39-15.43-4.97-1.84.47-3.57,1.31-5.15,2.35-3.17,2.07-5.75,4.82-8.33,7.55-2.57,2.72-5.25,5.66-9.36,5.29-1.99-.18-3.82-1.09-5.67-1.83-1.97-.79-3.81-1.19-5.93-.72-4.95,1.08-7.38,6.22-10.52,9.7-2.33,2.6-3.54,4.67-9.61,5.6,4.22.49,6.86-.2,9.52-2.38,3.44-2.81,6.59-8.02,11.38-8.56,4.04-.45,8.33,2.47,11.53,4.28,6.18,3.49,12.15,4.57,18.83,2.16-4.22.61-9.65-.37-10.68-3.21-.45-1.25-.17-2.74.61-3.81,4.03-5.5,9.09-9.35,11.69-10.52,5.05-2.28,9.76-.02,13.83,3.05,12.82,9.67,23.36,19.2,42.49,19.02Z" fill="#6abc46"/>
      <g>
        <path d="M113.04,56.31c.35-1.68,1.86-3.65,3.58-4.04,1.06-.24,4.86-.29,5.23.99l.02,27.26c-.29,3.31-2.82,3.96-5.75,3.66-2.68-.27-3.49-2.27-3.58-4.71-.36,0-1.67,1.91-2.16,2.35-4.3,3.89-11.47,3.37-15.99.16-7.12-5.06-7.94-17.28-3.34-24.23,4.87-7.36,16.24-8.28,21.98-1.43ZM104.16,59.18c-9.63.99-9.29,17.13.14,17.99,3.24.29,6.91-1.57,7.99-4.76.49-1.46.6-6.52.38-8.11-.07-.54-.96-1.98-1.33-2.43-1.7-2.1-4.56-2.95-7.18-2.68Z" fill="#fff"/>
        <path d="M129.51,59.52c-3.15-.53-3.37-6.06-.32-6.91,7.68-.36,15.53-.43,23.2.06,2.05.79,2.33,3.11,1.79,5-.41,1.44-2.89,4-3.96,5.26-3.8,4.47-7.83,8.75-11.59,13.26-.05.38.02.24.28.28,3.6.48,11.62-.85,14.5.57,2.18,1.07,2.09,5.3-.1,6.32-.67.31-1.62.42-2.36.47-6.78.45-14.06-.37-20.9-.03-3.53-.36-3.88-4.02-2.51-6.65,4.31-5.63,9.84-10.78,14.09-16.4.27-.36.63-.73.57-1.22h-12.7Z" fill="#fff"/>
        <path d="M35.38,39.92c.4-.41,2.07-.77,2.67-.8,3.82-.23,5.76,1.99,6.29,5.58v35.93c-.35,1.96-1.31,3.04-3.33,3.27-2.24.26-5.05-.01-5.67-2.58-.55-13.43-.05-26.96-.21-40.42.02-.3.03-.76.24-.98Z" fill="#fff"/>
        <path d="M27.98,55.95c-.28-3.3-2.02-4.1-5.12-3.99-2.26.08-3.8,1.09-4.09,3.45.47,8.02-.72,16.91-.05,24.83.28,3.25,2.68,3.92,5.56,3.67,2.2-.19,3.32-1.35,3.65-3.51-.47-7.89.71-16.66.05-24.45Z" fill="#fff"/>
        <path d="M73.69,77.73c-1.87,2.15-3.89,3.79-6.74,4.46-7.19,1.69-14.5-1.98-16.77-9.1-3.85-12.12,5.15-24.66,18.26-20.86,2.29.66,3.98,1.95,5.74,3.48,1.41-2.97,3.31-3.94,6.6-3.57,1.24.14,2.24.46,2.36,1.78.75,8.3-.61,17.75-.02,26.18.33,13.21-9.74,17.65-21.51,15.82-3.79-.59-9.64-2.99-10.1-7.41-.19-1.84,1.67-5.15,3.65-4.78.27.05,2.17,2.28,2.75,2.72,3.61,2.75,11.98,3.35,14.7-.88.29-.46,1.09-2.41,1.09-2.86v-4.99ZM65.01,58.95c-6.08.73-8.35,7.73-5.72,12.75s11.53,4.75,13.88-.43c.63-1.39.81-6.41.53-7.93-.07-.36-.75-1.3-1.02-1.61-1.83-2.11-4.93-3.1-7.66-2.77Z" fill="#fff"/>
      </g>
      <g>
        <path d="M53.43,118.8c.12,2.69-2.45,4.99-5.96,5.18-3.15.17-5.18-1.5-5.3-3.4-.08-1.26.73-2.37,1.97-2.44.74-.04,1.34.41,1.36.77.02.36-.57.69-.51,1.71.07,1.24,1.12,2.33,2.91,2.24,1.68-.09,2.93-1.26,2.86-2.84-.15-3.17-5.9-3.2-6.1-6.86-.14-2.47,2.48-4.51,5.69-4.66,1.94-.09,3.77.55,3.83,2.12.06,1.45-1.38,2.13-2.49,2.18-.94.04-1.38-.29-1.4-.6,0-.09.05-.17.14-.2.76-.26,1.18-.68,1.16-1.32-.03-.72-.73-1.08-1.56-1.04-1.29.06-2.78.95-2.7,2.46.15,2.86,5.93,2.85,6.09,6.7Z" fill="#6abc46"/>
        <path d="M61.59,115.81c.03,1-.77,2.32-1.31,2.95-.01.15,0,.32,0,.47.02.57.29.82.61.81.36-.01.92-.14,2.17-2,.07-.12.19-.17.28-.18.13,0,.25.11.25.28,0,.09-.01.19-.09.32-1.36,2.58-2.61,3.22-3.59,3.25-.78.02-1.26-.41-1.53-1.06-.82.93-1.61,1.17-2.25,1.2-1.21.05-1.89-.89-1.94-2.06-.04-.87.18-2.09.52-3.04.43-1.19.95-2.19,1.66-2.22.69-.03,1.11.47,1.13,1.09.01.34-.13.53-.42,1.07-.57,1.1-.84,1.92-.82,2.67.03.79.34.97.68.96.46-.02.86-.28,1.25-.67,0,0,0-.01,0-.02-.03-.87.25-2.09.6-3.04.44-1.18,1.09-1.87,1.8-1.89.69-.02.97.48.99,1.1ZM56.7,112.44c-.03-.74.6-1.42,1.36-1.45.58-.02.96.4.98.93.03.79-.59,1.43-1.32,1.46-.56.02-1-.4-1.02-.94ZM59.55,112.43c-.02-.74.61-1.42,1.36-1.44.58-.02.96.41.97.93.02.79-.59,1.43-1.32,1.45-.56.02-.99-.4-1.01-.95Z" fill="#6abc46"/>
        <path d="M66.83,112.59c-.33.59-.72,1.41-1.05,2.34.36-.1.69-.2.97-.34.83-.41.91-.73,1.08-.74.21,0,.48.24.49.75.02.89-2.33,1.3-2.99,1.85-.24.2-.29,1.55-.27,2.31.02.83.26,1.28.68,1.27.36,0,1.04-.25,2.3-2.1.07-.11.19-.17.28-.17.13,0,.25.11.25.28,0,.09-.02.19-.09.32-1.38,2.57-2.58,3.2-3.73,3.23-1.14.03-1.79-.9-1.82-2.22-.01-.45.03-1.17.16-1.89.07-.36.15-.78.26-1.2-.46-.2-.8-.56-.81-.96,0-.13.05-.25.15-.25.13,0,.35.16.9.15.02,0,.02,0,.04,0,.32-1.1.71-2.21,1.15-3.08.59-1.16,1.08-1.8,1.75-1.81.44,0,1.05.32,1.06.94,0,.23-.43.73-.76,1.34Z" fill="#6abc46"/>
        <path d="M85.65,108.95c0,.62-.67.99-1.58.98-.23,0-.46-.02-.69-.06-2.08,1.74-3.68,5.34-3.68,7.87,0,1.7.7,2.87,2.08,2.87.68,0,1.56-.27,2.4-1.25,0-.04,0-.06,0-.09,0-.21.02-.47.04-.68.35-2.64,2.29-9.32,4.79-9.27.83.01,1.07.74,1.05,1.6-.03,1.75-1.83,5.27-3.46,7.77-.01,1.06.26,1.46.63,1.46.51,0,1.33-.41,2.66-2.22.08-.11.19-.17.29-.16.13,0,.25.12.24.29,0,.09-.02.21-.1.32-1.48,2.52-2.86,3.7-4.37,3.68-.76,0-1.28-.52-1.56-1.28-1.13,1.33-2.63,2.11-4.03,2.1-2.23,0-3.46-1.94-3.47-4.4,0-3.49,2.48-7.32,4.59-9.07-.83-.21-1.7-.4-2.59-.4-2.03,0-3.49,1.01-3.49,2.31,0,.68.41,1.13,1.01,1.13.46,0,.77-.23.92-.36.08-.06.13-.09.21-.09.13,0,.27.13.27.47,0,.89-.99,2.21-2.58,2.22-1.38,0-2.48-.96-2.5-2.53-.02-2.28,2.34-4.14,6.04-4.14,1.41,0,2.67.29,3.87.49.39-.22.97-.46,1.67-.46.77,0,1.33.32,1.33.9ZM84.63,106.54c0-.81.76-1.54,1.59-1.53.64,0,1.06.5,1.05,1.09-.01.87-.74,1.55-1.55,1.55-.64,0-1.1-.5-1.09-1.11ZM88.18,106.78c.01-.81.76-1.53,1.62-1.52.64.01,1.04.51,1.03,1.1-.02.87-.75,1.55-1.56,1.54-.62-.01-1.1-.51-1.09-1.11Z" fill="#6abc46"/>
        <path d="M90.65,116.08c-.36-.37-.59-.84-.58-1.37.01-.75.53-1.39,1.16-1.37.48.01.78.47.76,1.17,0,.23-.07.56-.19.98.09,0,.14,0,.23,0,.56.01,1.27-.16,1.58-.38.2-.15.35-.2.47-.2.31,0,.74.42.72.89,0,.28-.17.56-.41.91-.46.69-1.11,1.71-1.14,2.65,0,.36.2.53.42.54.27,0,.78-.04,2.12-1.83.08-.11.2-.16.29-.16.13,0,.24.12.24.29,0,.09-.03.19-.1.32-1.5,2.5-2.57,3.08-3.6,3.05-.95-.02-1.63-.7-1.61-1.68.02-.91.83-2.1,1.45-2.82-.42-.1-.83-.28-1.19-.5-.32.71-.74,1.44-1.09,2.03-.14.2-.46.33-.69.33-.13,0-.21-.04-.21-.14,0-.08.08-.19.1-.21.47-.63,1-1.58,1.27-2.52Z" fill="#6abc46"/>
        <path d="M102.97,116.07c-.04,1-.93,2.26-1.51,2.85-.02.15-.03.32-.04.47-.02.57.23.84.56.85.36.01.93-.08,2.31-1.85.08-.11.2-.16.29-.16.13,0,.24.12.23.29,0,.09-.03.19-.11.32-1.54,2.48-2.83,3.03-3.81,2.99-.78-.03-1.23-.5-1.46-1.17-.89.87-1.69,1.06-2.33,1.03-1.21-.04-1.83-1.02-1.79-2.19.02-.87.32-2.07.74-3,.51-1.15,1.1-2.12,1.81-2.09.69.02,1.08.55,1.05,1.17-.01.34-.17.52-.5,1.04-.65,1.05-.98,1.86-1,2.61-.03.79.27.99.61,1,.46.02.88-.22,1.29-.58,0,0,0-.01,0-.02.03-.87.4-2.06.81-2.99.52-1.15,1.22-1.79,1.92-1.76.69.03.94.55.91,1.17ZM98.33,112.37c.02-.74.7-1.37,1.45-1.35.58.02.93.47.91,1-.03.79-.69,1.39-1.42,1.36-.56-.02-.96-.47-.95-1.01ZM101.17,112.56c.03-.74.71-1.37,1.46-1.34.58.02.93.47.9,1-.03.79-.69,1.39-1.42,1.36-.56-.02-.96-.47-.94-1.02Z" fill="#6abc46"/>
        <path d="M105.65,119.79c1.01-2.03,2.99-4.92,4.7-4.83.54.03,1.15.42,1.09,1.38-.08,1.51-1.4,2.89-1.45,3.76-.02.28.13.46.3.47.27.01.78-.02,2.18-1.77.08-.11.2-.16.29-.15.13,0,.24.13.23.3,0,.09-.03.19-.11.31-1.57,2.46-2.64,3.01-3.57,2.96-.89-.05-1.52-.76-1.47-1.74.07-1.3,1.12-2.62,1.16-3.3,0-.13-.06-.23-.18-.24-.46-.02-1.71,1.54-2.45,3.26-.47,1.09-.62,1.84-1.24,1.81-.66-.03-1.02-.42-1.23-1-.08-.25-.12-.84-.09-1.33.02-.45.16-1.13.35-1.84.44-1.74.91-2.49,1.64-2.46.57.03,1.01.56.98,1.1-.03.58-.82,1.47-1.13,3.29Z" fill="#6abc46"/>
        <path d="M114.86,117.82c-.22.76-.38,1.49-.41,2.07-.04.68.1,1.1.52,1.13.36.02,1.05-.16,2.47-1.9.08-.11.2-.16.3-.15.13,0,.24.13.23.3,0,.09-.03.19-.12.31-1.6,2.44-2.84,2.97-3.99,2.9-1.08-.07-1.73-.9-1.64-2.52.16-2.71,3.41-10.99,6.02-10.81.95.06,1.31.75,1.22,1.97-.12,1.79-1.79,4.62-4.59,6.69ZM115.28,116.6c1.98-1.9,2.86-3.77,2.9-4.41.01-.19-.04-.3-.19-.32-.46-.03-1.81,2.34-2.71,4.72Z" fill="#6abc46"/>
        <path d="M124.52,117.3c.07-.18.19-.25.33-.24.19.01.4.22.38.54,0,.09-.04.22-.1.33-1.17,2.42-3.05,5.09-5.92,4.89-1.29-.09-2.59-1.06-2.47-2.87.15-2.28,2.27-4.46,4.39-4.31,1.2.09,1.84.87,1.77,1.72-.1,1.28-1.67,2.41-3.97,2.53.06.8.4,1.43,1.25,1.49,1.42.1,3.26-1.06,4.34-4.08ZM118.94,119.14c1.1-.21,2.2-1.04,2.27-2.01.03-.4-.17-.58-.36-.59-.69-.05-1.7,1.28-1.91,2.61Z" fill="#6abc46"/>
        <path d="M125.47,117.21c.09,0,.14.01.23.02.55.04,1.27-.09,1.6-.29.2-.13.36-.18.48-.17.31.03.71.46.67.93-.02.28-.2.55-.46.89-.5.66-1.21,1.64-1.29,2.58-.03.36.16.54.39.56.27.02.78,0,2.23-1.7.09-.11.2-.15.3-.14.13.01.24.13.22.3,0,.09-.04.19-.12.31-1.65,2.41-2.75,2.93-3.77,2.84-.94-.08-1.59-.79-1.51-1.77.07-.9.94-2.04,1.61-2.73-1.19-.38-2.35-1.3-2.26-2.51.06-.75.6-1.35,1.24-1.3.48.04.75.51.69,1.21-.02.23-.1.56-.25.96Z" fill="#6abc46"/>
        <path d="M132.57,117.72c-.03.34-.22.51-.55,1.01-.67,1.02-1.02,1.97-1.08,2.61-.05.56.18.79.44.82.36.03.93-.03,2.4-1.73.09-.11.21-.15.3-.14.13.01.24.14.22.3,0,.09-.04.19-.13.31-1.66,2.4-2.98,2.89-3.96,2.8-1.11-.1-1.56-1.1-1.46-2.27.07-.86.44-2.05.91-2.95.58-1.12,1.22-2.05,1.93-1.99.69.06,1.04.61.99,1.23ZM131.74,114.35c.08-.85.89-1.45,1.79-1.37.92.09,1.23.76,1.18,1.3-.08.84-.94,1.35-1.84,1.27-.69-.06-1.18-.56-1.13-1.2Z" fill="#6abc46"/>
      </g>
    </g>
  </g>
</svg>