<?xml version="1.0" encoding="UTF-8"?>
<svg id="b" data-name="Layer 2" xmlns="http://www.w3.org/2000/svg" viewBox="0 0 843.73 193.21">
  <g id="c" data-name="Layer 1">
    <g>
      <path d="M326.88,64.57c-31.11-4.81-47.74-18.69-59.72-27.71-10.34-7.79-19.43-17.09-29.88-24.74-9.92-7.27-22.52-14.58-35.26-11.33-4.2,1.07-8.15,3-11.76,5.37-7.23,4.74-13.12,11.02-19.01,17.26-5.87,6.22-11.99,12.94-21.36,12.1-4.54-.41-8.73-2.48-12.96-4.17-4.5-1.8-8.69-2.7-13.54-1.64-11.31,2.48-16.85,14.21-24,22.17-5.32,5.93-8.08,10.67-21.93,12.8,9.64,1.11,15.66-.47,21.74-5.44,7.86-6.43,15.04-18.33,25.98-19.56,9.23-1.05,19.03,5.64,26.34,9.76,14.11,7.97,27.76,10.41,43.01,4.9-9.63,1.39-22.05-.83-24.39-7.31-1.03-2.85-.4-6.25,1.39-8.71,9.19-12.58,20.75-21.36,26.67-24.05,11.53-5.22,22.28-.07,31.59,6.94,29.3,22.07,53.38,43.8,97.08,43.35Z" fill="#6abc46"/>
      <g>
        <path d="M232.67,94.63c.85-4.13,4.56-9,8.8-9.97,2.6-.59,11.97-.73,12.88,2.42l.11,67.1c-.7,8.16-6.93,9.75-14.14,9.01-6.6-.67-8.6-5.59-8.81-11.58-.89.02-4.1,4.7-5.32,5.8-10.57,9.6-28.22,8.33-39.36.43-17.54-12.44-19.59-42.53-8.28-59.65,11.97-18.14,39.97-20.41,54.12-3.56ZM210.8,101.71c-23.71,2.45-22.83,42.2.38,44.28,7.98.72,17-3.89,19.65-11.74,1.21-3.59,1.47-16.05.93-19.96-.19-1.34-2.36-4.86-3.28-5.99-4.2-5.18-11.22-7.26-17.69-6.59Z" fill="#235a30"/>
        <path d="M273.21,102.5c-7.76-1.29-8.32-14.91-.8-17.02,18.9-.91,38.23-1.1,57.11.1,5.05,1.95,5.75,7.66,4.41,12.31-1.02,3.54-7.11,9.86-9.74,12.96-9.34,11.01-19.25,21.57-28.5,32.67-.12.94.04.6.68.69,8.86,1.18,28.6-2.13,35.7,1.37,5.37,2.64,5.17,13.03-.22,15.57-1.64.77-3.98,1.03-5.8,1.15-16.69,1.12-34.62-.88-51.45-.03-8.7-.88-9.56-9.88-6.19-16.37,10.59-13.88,24.21-26.57,34.66-40.4.66-.88,1.55-1.79,1.4-3h-31.27Z" fill="#235a30"/>
        <path d="M41.44,54.43c.97-1.01,5.08-1.89,6.58-1.98,9.41-.58,14.18,4.88,15.49,13.73l.05,88.45c-.83,4.82-3.2,7.48-8.16,8.06-5.52.65-12.44-.02-13.95-6.33-1.38-33.05-.18-66.36-.61-99.51.05-.74.07-1.86.6-2.41Z" fill="#235a30"/>
        <path d="M23.27,93.91c-.7-8.12-4.99-10.09-12.61-9.82-5.57.2-9.36,2.69-10.06,8.5,1.17,19.74-1.74,41.64-.07,61.12.69,8,6.61,9.65,13.7,9.03,5.41-.47,8.16-3.34,8.97-8.64-1.16-19.44,1.72-41.01.07-60.2Z" fill="#235a30"/>
        <path d="M135.84,147.45c-4.6,5.29-9.57,9.33-16.59,10.98-17.7,4.16-35.71-4.84-41.3-22.36-9.51-29.83,12.64-60.73,44.9-51.39,5.63,1.63,9.81,4.8,14.13,8.56,3.46-7.32,8.13-9.71,16.23-8.81,3.06.34,5.51,1.13,5.81,4.38,1.87,20.44-1.46,43.7,0,64.44.84,32.53-23.94,43.46-52.94,39-9.34-1.44-23.74-7.34-24.87-18.22-.47-4.53,4.09-12.68,8.97-11.78.66.12,5.34,5.61,6.77,6.7,8.89,6.75,29.49,8.23,36.19-2.19.72-1.12,2.69-5.95,2.69-7.04v-12.28ZM114.42,101.24c-14.97,1.8-20.54,19.05-14.05,31.4,6.63,12.61,28.39,11.68,34.16-1.09,1.54-3.41,1.98-15.79,1.28-19.52-.17-.89-1.86-3.2-2.52-3.96-4.5-5.19-12.14-7.63-18.87-6.82Z" fill="#235a30"/>
      </g>
      <g>
        <path d="M448.04,134.47c.3,15.52-17.34,23.78-30.45,24.11-11.05.28-24.74-6.01-25.04-18.25-.15-6.08,4.28-11.45,10.33-11.45,3.63,0,6.42,2.42,6.42,4.19s-2.98,3.26-2.98,8.29c0,6.14,4.84,11.82,13.69,11.82,8.29,0,15.14-5.96,14.71-13.31-.93-16.13-28.43-18.06-27.93-35.38.38-13.2,16.05-21.77,28.58-21.5,9.11.19,17.97,3.54,17.97,11.26,0,7.17-7.08,10.24-12.48,10.24-4.56,0-6.61-1.77-6.61-3.26,0-.47.28-.84.74-.93,3.72-1.12,5.87-3.07,5.87-6.24,0-3.54-3.26-5.49-7.26-5.49-6.24,0-14.11,4.58-13.59,11.45,1.15,15.31,27.67,16.19,28.02,34.44Z" fill="#6abc46"/>
        <path d="M488.35,121.15c0,4.93-4.1,11.36-6.8,14.34-.09.74-.09,1.58-.09,2.33,0,2.79,1.3,4.1,2.89,4.1,1.77,0,4.56-.56,10.89-9.59.37-.56.93-.84,1.4-.84.65,0,1.21.56,1.21,1.4,0,.47-.09.93-.47,1.58-6.98,12.57-13.22,15.55-18.06,15.55-3.82,0-6.15-2.24-7.36-5.49-4.19,4.47-8.1,5.49-11.27,5.49-5.96,0-9.12-4.75-9.12-10.52,0-4.28,1.3-10.25,3.16-14.89,2.32-5.77,5.03-10.61,8.47-10.61s5.31,2.51,5.31,5.58c0,1.68-.74,2.61-2.23,5.21-2.98,5.31-4.47,9.31-4.47,13.03,0,3.91,1.49,4.84,3.16,4.84,2.23,0,4.28-1.21,6.24-3.07v-.09c0-4.28,1.58-10.25,3.44-14.89,2.32-5.77,5.59-9.03,9.03-9.03s4.66,2.51,4.66,5.58ZM465.17,103.75c0-3.63,3.16-6.89,6.8-6.89,2.79,0,4.56,2.14,4.56,4.75,0,3.91-3.07,6.98-6.61,6.98-2.7,0-4.75-2.14-4.75-4.84ZM478.95,104.21c0-3.63,3.17-6.89,6.8-6.89,2.79,0,4.56,2.14,4.56,4.75,0,3.91-3.07,6.98-6.61,6.98-2.7,0-4.75-2.14-4.75-4.84Z" fill="#6abc46"/>
        <path d="M514.14,105.89c-1.65,2.88-3.63,6.89-5.31,11.45,1.77-.46,3.35-.93,4.75-1.58,4.1-1.95,4.47-3.54,5.31-3.54,1.02,0,2.33,1.21,2.33,3.72,0,4.38-11.49,6.24-14.71,8.84-1.19.96-1.58,7.63-1.58,11.36,0,4.1,1.12,6.33,3.17,6.33,1.77,0,5.12-1.12,11.45-10.15.37-.56.93-.84,1.4-.84.65,0,1.21.56,1.21,1.4,0,.47-.09.93-.47,1.58-6.98,12.57-12.94,15.55-18.62,15.55-5.59,0-8.66-4.65-8.66-11.17,0-2.23.28-5.77,1.02-9.31.37-1.77.84-3.82,1.4-5.87-2.23-1.02-3.82-2.88-3.82-4.84,0-.65.28-1.21.75-1.21.65,0,1.68.84,4.38.84h.19c1.68-5.4,3.72-10.81,5.96-15.08,2.97-5.68,5.4-8.75,8.66-8.75,2.14,0,5.03,1.67,5.03,4.75,0,1.12-2.13,3.57-3.82,6.52Z" fill="#6abc46"/>
        <path d="M605.1,88.29c0,3.07-3.17,4.93-7.54,4.93-1.12,0-2.24-.09-3.35-.28-10.66,9.27-17.36,25.41-17.69,38.91-.2,8.17,3.44,14.15,10.24,14.15,3.35,0,7.63-1.4,11.73-6.24v-.46c0-1.02.09-2.33.19-3.35,1.89-13.97,8.39-44.17,22.63-46.08,3.44-.46,5.43,3.77,5.21,7.82-.69,13.15-9.06,27.04-16.2,38.63,0,5.21,1.4,7.17,3.17,7.17,2.51,0,6.52-2.14,12.85-11.17.37-.56.93-.84,1.4-.84.65,0,1.21.56,1.21,1.4,0,.47-.09,1.02-.47,1.58-4.13,8.03-11.26,18.33-21.13,18.52-3.65.07-6.33-2.51-7.73-6.24-5.49,6.61-12.86,10.54-19.74,10.52-11.59-.02-17.44-11.52-17.04-21.69.64-16.33,9.55-33.99,22.25-44.78-4-1.02-8.19-1.95-12.48-1.95-9.78,0-16.85,4.93-16.85,11.36,0,3.35,1.96,5.58,4.84,5.58,2.23,0,3.73-1.12,4.47-1.77.37-.28.65-.47,1.03-.47.65,0,1.3.65,1.3,2.33,0,4.38-4.84,10.89-12.57,10.89-6.7,0-12.25-5.09-12.01-12.57.43-13.63,17.03-20.63,29.23-20.29,6.61.18,12.85,1.4,18.62,2.33,1.86-1.12,4.66-2.33,8.01-2.33,3.73,0,6.42,1.49,6.42,4.38ZM600.08,76.47c0-4,3.54-7.63,7.54-7.63,3.07,0,5.12,2.42,5.12,5.31,0,4.28-3.44,7.73-7.35,7.73-3.07,0-5.31-2.42-5.31-5.4ZM617.11,77.4c0-4,3.54-7.63,7.64-7.63,3.07,0,5.03,2.42,5.03,5.3,0,4.28-3.45,7.73-7.36,7.73-2.98,0-5.31-2.42-5.31-5.4Z" fill="#6abc46"/>
        <path d="M629.87,123.11c-1.77-1.77-2.98-4.1-2.98-6.7,0-3.72,2.42-6.89,5.49-6.89,2.33,0,3.82,2.23,3.82,5.68,0,1.12-.28,2.79-.84,4.84h1.12c2.7,0,6.14-.93,7.63-2.05.93-.74,1.68-1.02,2.24-1.02,1.49,0,3.63,1.96,3.63,4.28,0,1.39-.74,2.79-1.86,4.56-2.14,3.45-5.21,8.56-5.21,13.22,0,1.77,1.02,2.61,2.14,2.61,1.31,0,3.82-.28,10.15-9.31.37-.56.93-.84,1.4-.84.65,0,1.21.56,1.21,1.4,0,.47-.09.93-.47,1.58-6.98,12.57-12.2,15.55-17.23,15.55-4.66,0-8.1-3.26-8.1-8.1,0-4.47,3.82-10.43,6.8-14.06-2.05-.46-4.1-1.3-5.87-2.33-1.49,3.54-3.44,7.17-5.12,10.15-.65,1.02-2.24,1.68-3.35,1.68-.65,0-1.02-.19-1.02-.65,0-.37.37-.93.47-1.02,2.23-3.17,4.75-7.91,5.96-12.57Z" fill="#6abc46"/>
        <path d="M689.83,121.15c0,4.93-4.1,11.36-6.79,14.34-.09.74-.09,1.58-.09,2.33,0,2.79,1.3,4.1,2.89,4.1,1.77,0,4.56-.56,10.89-9.59.37-.56.93-.84,1.4-.84.65,0,1.21.56,1.21,1.4,0,.47-.09.93-.47,1.58-6.98,12.57-13.22,15.55-18.06,15.55-3.82,0-6.14-2.24-7.35-5.49-4.19,4.47-8.1,5.49-11.27,5.49-5.96,0-9.12-4.75-9.12-10.52,0-4.28,1.3-10.25,3.16-14.89,2.32-5.77,5.03-10.61,8.47-10.61,3.35,0,5.31,2.51,5.31,5.58,0,1.68-.74,2.61-2.24,5.21-2.98,5.31-4.47,9.31-4.47,13.03,0,3.91,1.49,4.84,3.17,4.84,2.23,0,4.28-1.21,6.24-3.07v-.09c0-4.28,1.58-10.25,3.45-14.89,2.32-5.77,5.59-9.03,9.03-9.03,3.35,0,4.66,2.51,4.66,5.58ZM666.64,103.75c0-3.63,3.16-6.89,6.8-6.89,2.79,0,4.56,2.14,4.56,4.75,0,3.91-3.07,6.98-6.61,6.98-2.7,0-4.75-2.14-4.75-4.84ZM680.42,104.21c0-3.63,3.17-6.89,6.79-6.89,2.79,0,4.56,2.14,4.56,4.75,0,3.91-3.07,6.98-6.61,6.98-2.7,0-4.75-2.14-4.75-4.84Z" fill="#6abc46"/>
        <path d="M703.7,138.94c4.08-9.46,11.48-23.91,21.7-24.95,2.33-.24,5.68,1.77,5.68,6.52,0,7.45-6.05,14.61-6.05,18.9,0,1.39.74,2.23,1.58,2.23,1.3,0,3.82-.28,10.15-9.31.37-.56.93-.84,1.4-.84.65,0,1.21.56,1.21,1.4,0,.47-.09.93-.47,1.58-6.98,12.57-12.1,15.55-16.66,15.55-4.38,0-7.63-3.35-7.63-8.19,0-6.42,4.84-13.22,4.84-16.57,0-.65-.37-1.12-.93-1.12-2.23,0-7.93,8.01-11.17,16.66-2.05,5.48-2.61,9.22-5.68,9.22-3.26,0-5.12-1.86-6.24-4.65-.47-1.21-.75-4.1-.75-6.52,0-2.23.56-5.59,1.3-9.12,1.77-8.66,3.91-12.47,7.45-12.47,2.79,0,5.03,2.52,5.03,5.21,0,2.89-3.63,7.45-4.75,16.48Z" fill="#6abc46"/>
        <path d="M748.11,126.74c-.84,3.82-1.4,7.45-1.4,10.33,0,3.35.84,5.4,2.89,5.4,1.77,0,5.12-1.12,11.45-10.15.37-.56.93-.84,1.4-.84.65,0,1.21.56,1.21,1.4,0,.47-.09.93-.46,1.58-6.98,12.57-12.94,15.55-18.62,15.55-5.31,0-8.95-4.11-8.75-11.92.37-15.27,10.3-52.99,25.89-55.11,3.91-.53,6.75,3.5,6.52,9.31-.52,13.16-10.14,25.65-20.11,34.44ZM749.79,120.6c9.03-9.96,12.66-19.46,12.66-22.62,0-.93-.28-1.49-1.02-1.49-2.24,0-8.01,12.1-11.64,24.11Z" fill="#6abc46"/>
        <path d="M794.85,120.87c.28-.93.84-1.3,1.49-1.3.93,0,2.05.93,2.05,2.52,0,.47-.09,1.12-.37,1.67-4.22,12.23-13.43,25.84-27.09,26.25-6.14.18-13.18-4.53-13.04-13.31.18-10.86,8.73-22.33,19.93-22.71,5.66-.19,9.22,3.63,9.22,7.82,0,6.33-7.26,12.47-18.44,13.87.56,3.91,2.54,7.01,6.61,6.89,10.61-.31,17.43-12.25,19.64-21.69ZM768.41,131.95c5.31-1.39,10.33-5.86,10.33-10.7,0-1.96-1.02-2.79-1.95-2.79-3.35,0-7.82,6.89-8.38,13.5Z" fill="#6abc46"/>
        <path d="M799.41,120.04h1.12c2.7,0,6.14-.93,7.63-2.05.93-.74,1.68-1.02,2.24-1.02,1.49,0,3.63,1.96,3.63,4.28,0,1.39-.74,2.79-1.86,4.56-2.14,3.45-5.21,8.56-5.21,13.22,0,1.77,1.02,2.61,2.14,2.61,1.3,0,3.82-.28,10.15-9.31.37-.56.93-.84,1.4-.84.65,0,1.21.56,1.21,1.4,0,.47-.09.93-.46,1.58-6.98,12.57-12.2,15.55-17.23,15.55-4.66,0-8.1-3.26-8.1-8.1,0-4.47,3.82-10.43,6.8-14.06-5.96-1.4-11.92-5.49-11.92-11.45,0-3.72,2.42-6.89,5.49-6.89,2.33,0,3.82,2.23,3.82,5.68,0,1.12-.28,2.79-.84,4.84Z" fill="#6abc46"/>
        <path d="M834.04,119.57c0,1.68-.84,2.61-2.23,5.21-2.79,5.31-4.1,10.15-4.1,13.31,0,2.79,1.21,3.82,2.51,3.82,1.77,0,4.56-.56,10.89-9.59.37-.56.93-.84,1.4-.84.65,0,1.21.56,1.21,1.4,0,.47-.09.93-.47,1.58-6.98,12.57-13.22,15.55-18.06,15.55-5.49,0-8.1-4.75-8.1-10.52,0-4.28,1.3-10.25,3.17-14.89,2.32-5.77,5.03-10.61,8.47-10.61,3.35,0,5.31,2.51,5.31,5.58ZM828.55,103.37c0-4.19,3.63-7.54,8.01-7.54s6.24,3.17,6.24,5.86c0,4.19-3.91,7.08-8.28,7.08-3.35,0-5.96-2.23-5.96-5.4Z" fill="#6abc46"/>
      </g>
    </g>
  </g>
</svg>