<?xml version="1.0" encoding="UTF-8"?>
<svg id="b" data-name="Layer 2" xmlns="http://www.w3.org/2000/svg" viewBox="0 0 1053.73 193.21">
  <g id="c" data-name="Layer 1">
    <g>
      <g>
        <path d="M326.88,64.57c-31.11-4.81-47.74-18.69-59.72-27.71-10.34-7.79-19.43-17.09-29.88-24.74-9.92-7.27-22.52-14.58-35.26-11.33-4.2,1.07-8.15,3-11.76,5.37-7.23,4.74-13.12,11.02-19.01,17.26-5.87,6.22-11.99,12.94-21.36,12.1-4.54-.41-8.73-2.48-12.96-4.17-4.5-1.8-8.69-2.7-13.54-1.64-11.31,2.48-16.85,14.21-24,22.17-5.32,5.93-8.08,10.67-21.93,12.8,9.64,1.11,15.66-.47,21.74-5.44,7.86-6.43,15.04-18.33,25.98-19.56,9.23-1.05,19.03,5.64,26.34,9.76,14.11,7.97,27.76,10.41,43.01,4.9-9.63,1.39-22.05-.83-24.39-7.31-1.03-2.85-.4-6.25,1.39-8.71,9.19-12.58,20.75-21.36,26.67-24.05,11.53-5.22,22.28-.07,31.59,6.94,29.3,22.07,53.38,43.8,97.08,43.35Z" fill="#6abc46"/>
        <g>
          <path d="M232.67,94.63c.85-4.13,4.56-9,8.8-9.97,2.6-.59,11.97-.73,12.88,2.42l.11,67.1c-.7,8.16-6.93,9.75-14.14,9.01-6.6-.67-8.6-5.59-8.81-11.58-.89.02-4.1,4.7-5.32,5.8-10.57,9.6-28.22,8.33-39.36.43-17.54-12.44-19.59-42.53-8.28-59.65,11.97-18.14,39.97-20.41,54.12-3.56ZM210.8,101.71c-23.71,2.45-22.83,42.2.38,44.28,7.98.72,17-3.89,19.65-11.74,1.21-3.59,1.47-16.05.93-19.96-.19-1.34-2.36-4.86-3.28-5.99-4.2-5.18-11.22-7.26-17.69-6.59Z" fill="#235a30"/>
          <path d="M273.21,102.5c-7.76-1.29-8.32-14.91-.8-17.02,18.9-.91,38.23-1.1,57.11.1,5.05,1.95,5.75,7.66,4.41,12.31-1.02,3.54-7.11,9.86-9.74,12.96-9.34,11.01-19.25,21.57-28.5,32.67-.12.94.04.6.68.69,8.86,1.18,28.6-2.13,35.7,1.37,5.37,2.64,5.17,13.03-.22,15.57-1.64.77-3.98,1.03-5.8,1.15-16.69,1.12-34.62-.88-51.45-.03-8.7-.88-9.56-9.88-6.19-16.37,10.59-13.88,24.21-26.57,34.66-40.4.66-.88,1.55-1.79,1.4-3h-31.27Z" fill="#235a30"/>
          <path d="M41.44,54.43c.97-1.01,5.08-1.89,6.58-1.98,9.41-.58,14.18,4.88,15.49,13.73l.05,88.45c-.83,4.82-3.2,7.48-8.16,8.06-5.52.65-12.44-.02-13.95-6.33-1.38-33.05-.18-66.36-.61-99.51.05-.74.07-1.86.6-2.41Z" fill="#235a30"/>
          <path d="M23.27,93.91c-.7-8.12-4.99-10.09-12.61-9.82-5.57.2-9.36,2.69-10.06,8.5,1.17,19.74-1.74,41.64-.07,61.12.69,8,6.61,9.65,13.7,9.03,5.41-.47,8.16-3.34,8.97-8.64-1.16-19.44,1.72-41.01.07-60.2Z" fill="#235a30"/>
          <path d="M135.84,147.45c-4.6,5.29-9.57,9.33-16.59,10.98-17.7,4.16-35.71-4.84-41.3-22.36-9.51-29.83,12.64-60.73,44.9-51.39,5.63,1.63,9.81,4.8,14.13,8.56,3.46-7.32,8.13-9.71,16.23-8.81,3.06.34,5.51,1.13,5.81,4.38,1.87,20.44-1.46,43.7,0,64.44.84,32.53-23.94,43.46-52.94,39-9.34-1.44-23.74-7.34-24.87-18.22-.47-4.53,4.09-12.68,8.97-11.78.66.12,5.34,5.61,6.77,6.7,8.89,6.75,29.49,8.23,36.19-2.19.72-1.12,2.69-5.95,2.69-7.04v-12.28ZM114.42,101.24c-14.97,1.8-20.54,19.05-14.05,31.4,6.63,12.61,28.39,11.68,34.16-1.09,1.54-3.41,1.98-15.79,1.28-19.52-.17-.89-1.86-3.2-2.52-3.96-4.5-5.19-12.14-7.63-18.87-6.82Z" fill="#235a30"/>
        </g>
      </g>
      <g>
        <path d="M491.41,129.82c-.14,22.25-23.82,34.18-43.27,34.26-15.6.06-35.12-8.66-35.59-25.93-.23-8.62,6.09-16.27,14.69-16.27,5.16,0,9.13,3.44,9.13,5.95s-4.27,4.67-4.23,11.77c.06,10.4,9.72,16.89,19.45,16.8,10.69-.09,20.95-7.63,20.9-18.92-.1-23.82-38.92-24.85-39.69-50.27-.61-20.16,24.24-30.37,40.62-30.56,10.11-.11,25.23,3.71,25.54,16.01.25,9.93-10.06,14.55-17.73,14.55-6.48,0-9.39-2.51-9.39-4.63,0-.66.4-1.19,1.06-1.32,5.29-1.59,8.34-4.37,8.34-8.86,0-5.03-4.66-7.83-10.32-7.81-9.36.04-19.6,6.58-19.32,16.27.64,22.17,39.99,22.58,39.82,48.95Z" fill="#6abc46"/>
        <path d="M548.7,110.9c0,7.01-5.82,16.14-9.66,20.37-.13,1.06-.13,2.25-.13,3.31,0,3.97,1.85,5.82,4.1,5.82,2.51,0,6.48-.79,15.48-13.63.53-.79,1.32-1.19,1.98-1.19.93,0,1.72.79,1.72,1.99,0,.66-.13,1.32-.66,2.25-4.68,9.45-14.13,21.92-25.67,22.09-5.34.08-8.73-3.18-10.45-7.81-5.95,6.35-11.51,7.81-16.01,7.81-8.47,0-12.97-6.75-12.97-14.95,0-6.08,1.85-14.56,4.5-21.17,3.29-8.2,7.14-15.08,12.04-15.08s7.54,3.57,7.54,7.94c0,2.38-1.06,3.7-3.18,7.41-4.23,7.54-6.35,13.23-6.35,18.52,0,5.56,2.12,6.88,4.5,6.88,3.18,0,6.09-1.72,8.87-4.37v-.13c0-6.08,2.24-14.56,4.89-21.17,3.29-8.2,7.94-12.83,12.84-12.83s6.62,3.57,6.62,7.94ZM515.75,86.16c0-5.16,4.5-9.79,9.66-9.79,3.97,0,6.48,3.04,6.48,6.75,0,5.56-4.37,9.92-9.39,9.92-3.84,0-6.75-3.04-6.75-6.88ZM535.33,86.82c0-5.16,4.5-9.79,9.66-9.79,3.97,0,6.48,3.04,6.48,6.75,0,5.56-4.37,9.92-9.39,9.92-3.84,0-6.75-3.04-6.75-6.88Z" fill="#6abc46"/>
        <path d="M585.35,89.2c-2.34,4.09-5.16,9.79-7.54,16.27,2.52-.66,4.76-1.32,6.75-2.25,5.82-2.78,6.35-5.03,7.54-5.03,1.46,0,3.31,1.72,3.31,5.29,0,6.22-16.32,8.87-20.91,12.57-1.69,1.36-2.25,10.85-2.25,16.14,0,5.82,1.59,9,4.5,9,2.51,0,7.28-1.59,16.27-14.42.53-.79,1.32-1.19,1.98-1.19.93,0,1.72.79,1.72,1.99,0,.66-.13,1.32-.66,2.25-4.88,9.92-14.28,22.05-26.46,22.09-7.91.03-12.3-6.61-12.3-15.88,0-3.17.4-8.2,1.46-13.23.53-2.51,1.19-5.42,1.98-8.34-3.18-1.46-5.43-4.1-5.43-6.88,0-.92.4-1.72,1.06-1.72.93,0,2.38,1.19,6.22,1.19h.26c2.38-7.68,5.29-15.36,8.47-21.43,4.22-8.07,7.68-12.43,12.31-12.43,3.04,0,7.14,2.38,7.14,6.74,0,1.59-3.03,5.07-5.43,9.26Z" fill="#6abc46"/>
        <path d="M714.61,64.2c0,4.37-4.5,7.01-10.72,7.01-1.59,0-3.18-.13-4.76-.4-14.74,13.26-24.96,35.66-25.14,55.3-.11,11.8,4.89,20.11,14.55,20.11,4.76,0,10.85-1.98,16.67-8.86v-.66c0-1.46.13-3.31.27-4.76,2.32-16.82,11.18-64.33,32.15-65.48,5.37-.3,7.59,5.22,7.41,11.11-.57,18.57-12.97,39.08-23.02,54.9,0,7.41,1.99,10.19,4.5,10.19,3.57,0,9.26-3.04,18.26-15.88.53-.79,1.32-1.19,1.99-1.19.92,0,1.72.79,1.72,1.99,0,.66-.13,1.46-.66,2.25-6.93,11.23-15.51,25.95-30.03,26.32-5.16.13-9-3.57-10.98-8.86-6.9,8.4-17.19,14.5-28.05,14.95-16.3.67-24.23-17.43-24.21-30.83.03-23.29,14.1-48.26,31.62-63.63-5.69-1.46-11.71-2.71-17.73-2.78-9.86-.11-23.61,4.76-23.95,16.14-.14,4.62,2.78,7.94,6.88,7.94,3.17,0,5.29-1.59,6.35-2.51.53-.4.93-.66,1.46-.66.92,0,1.85.93,1.85,3.31,0,6.22-6.88,15.48-17.86,15.48-9.53,0-17.1-6.91-17.07-17.86.06-20.79,24.53-28.92,41.54-28.84,9.62.05,18.26,1.99,26.46,3.31,2.65-1.59,6.62-3.31,11.38-3.31,5.29,0,9.13,2.12,9.13,6.22ZM707.47,47.4c0-5.69,5.03-10.85,10.72-10.85,4.36,0,7.27,3.44,7.27,7.54,0,6.08-4.89,10.98-10.45,10.98-4.37,0-7.54-3.44-7.54-7.67ZM731.68,48.72c0-5.69,5.03-10.85,10.85-10.85,4.37,0,7.15,3.44,7.15,7.54,0,6.09-4.9,10.98-10.45,10.98-4.24,0-7.54-3.44-7.54-7.67Z" fill="#6abc46"/>
        <path d="M749.81,113.68c-2.51-2.52-4.23-5.82-4.23-9.53,0-5.29,3.44-9.79,7.8-9.79,3.31,0,5.43,3.17,5.43,8.07,0,1.59-.4,3.97-1.19,6.88h1.59c3.84,0,8.73-1.32,10.85-2.91,1.32-1.06,2.38-1.46,3.18-1.46,2.12,0,5.16,2.78,5.16,6.09,0,1.98-1.06,3.97-2.64,6.48-3.04,4.9-7.41,12.17-7.41,18.79,0,2.51,1.45,3.7,3.04,3.7,1.86,0,5.42-.4,14.42-13.23.53-.79,1.32-1.19,1.99-1.19.92,0,1.72.79,1.72,1.99,0,.66-.13,1.32-.66,2.25-4.49,9.03-13.14,21.97-24.48,22.09-6.54.07-11.51-4.63-11.51-11.51,0-6.35,5.43-14.82,9.66-19.98-2.91-.66-5.82-1.85-8.34-3.31-2.12,5.03-4.89,10.19-7.28,14.42-.92,1.46-3.18,2.38-4.76,2.38-.93,0-1.46-.27-1.46-.93,0-.53.53-1.32.66-1.46,3.17-4.5,6.75-11.24,8.47-17.86Z" fill="#6abc46"/>
        <path d="M835.02,110.9c0,7.01-5.82,16.14-9.66,20.37-.13,1.06-.13,2.25-.13,3.31,0,3.97,1.85,5.82,4.1,5.82,2.51,0,6.48-.79,15.48-13.63.53-.79,1.32-1.19,1.99-1.19.92,0,1.72.79,1.72,1.99,0,.66-.13,1.32-.66,2.25-4.68,9.45-14.12,21.92-25.67,22.09-5.34.08-8.73-3.18-10.45-7.81-5.95,6.35-11.51,7.81-16.01,7.81-8.47,0-12.96-6.75-12.96-14.95,0-6.08,1.84-14.56,4.5-21.17,3.29-8.2,7.15-15.08,12.04-15.08s7.54,3.57,7.54,7.94c0,2.38-1.06,3.7-3.18,7.41-4.23,7.54-6.35,13.23-6.35,18.52,0,5.56,2.12,6.88,4.5,6.88,3.17,0,6.08-1.72,8.86-4.37v-.13c0-6.08,2.25-14.57,4.9-21.17,3.29-8.2,7.94-12.83,12.83-12.83,4.77,0,6.62,3.57,6.62,7.94ZM802.07,86.16c0-5.16,4.5-9.79,9.66-9.79,3.97,0,6.48,3.04,6.48,6.75,0,5.56-4.37,9.92-9.39,9.92-3.84,0-6.75-3.04-6.75-6.88ZM821.65,86.82c0-5.16,4.5-9.79,9.66-9.79,3.97,0,6.49,3.04,6.49,6.75,0,5.56-4.37,9.92-9.4,9.92-3.84,0-6.75-3.04-6.75-6.88Z" fill="#6abc46"/>
        <path d="M854.73,136.17c5.25-12.4,16.29-34.68,30.83-35.46,3.5-.19,8.31,2.77,8.07,9.26-.36,9.57-7.65,18.28-8.6,26.86-.19,1.75,1.06,3.17,2.25,3.17,1.85,0,5.42-.4,14.42-13.23.53-.79,1.32-1.19,1.99-1.19.92,0,1.72.79,1.72,1.99,0,.66-.13,1.32-.66,2.25-4.31,8.62-12.83,21.89-23.68,22.09-6.1.11-10.85-4.76-10.85-11.64,0-9.13,6.88-18.79,6.88-23.55,0-.92-.79-1.75-1.32-1.59-6.52,1.98-12.56,14.86-15.87,23.68-2.92,7.78-3.7,13.1-8.07,13.1-4.63,0-7.28-2.65-8.86-6.61-.66-1.72-1.06-5.82-1.06-9.26,0-3.17.79-7.94,1.85-12.97,2.52-12.3,5.56-17.73,10.58-17.73,3.97,0,7.15,3.57,7.15,7.41,0,4.1-5.16,10.58-6.75,23.42Z" fill="#6abc46"/>
        <path d="M917.85,118.84c-1.19,5.42-1.99,10.58-1.99,14.68,0,4.76,1.19,7.67,4.1,7.67,2.51,0,7.28-1.59,16.28-14.42.53-.79,1.32-1.19,1.98-1.19.93,0,1.72.79,1.72,1.99,0,.66-.13,1.32-.66,2.25-4.88,9.92-14.29,22.05-26.46,22.09-7.52.03-12.67-5.79-12.44-16.93.4-19.46,14.01-76.58,36.79-78.32,5.97-.45,9.42,4.79,9.26,13.23-.36,19.41-15.14,36.02-28.58,48.95ZM920.23,110.1c7.92-8.94,17.17-20.75,17.99-32.14.09-1.23-.81-2.36-1.45-2.12-7.49,2.74-13.08,23.14-16.54,34.26Z" fill="#6abc46"/>
        <path d="M984.26,110.5c.4-1.32,1.19-1.85,2.12-1.85,1.32,0,2.91,1.32,2.91,3.57,0,.66-.13,1.59-.53,2.38-6.27,16.66-18.15,37.33-38.51,37.31-10.48,0-18.9-8.51-18.52-18.92.51-14.16,12.03-32.35,28.32-32.28,8.3.04,13.33,5.41,13.1,11.11-.5,12.08-15.35,18.59-26.2,19.71.79,5.56,3.67,10.01,9.4,9.79,15.01-.56,24.49-17.26,27.92-30.83ZM946.69,126.24c7.54-1.98,14.69-8.33,14.69-15.21,0-2.78-1.46-3.97-2.78-3.97-4.76,0-11.11,9.79-11.91,19.18Z" fill="#6abc46"/>
        <path d="M990.75,109.31h1.59c3.84,0,8.73-1.32,10.85-2.91,1.33-1.06,2.38-1.46,3.18-1.46,2.12,0,5.16,2.78,5.16,6.09,0,1.98-1.06,3.97-2.65,6.48-3.04,4.9-7.41,12.17-7.41,18.79,0,2.51,1.46,3.7,3.04,3.7,1.85,0,5.42-.4,14.42-13.23.53-.79,1.33-1.19,1.99-1.19.93,0,1.72.79,1.72,1.99,0,.66-.13,1.32-.66,2.25-4.49,9.03-13.14,21.97-24.48,22.09-6.54.07-11.51-4.63-11.51-11.51,0-6.35,5.43-14.82,9.66-19.98-8.47-1.98-16.94-7.8-16.94-16.27,0-5.29,3.44-9.79,7.81-9.79,3.31,0,5.42,3.17,5.42,8.07,0,1.59-.4,3.97-1.19,6.88Z" fill="#6abc46"/>
        <path d="M1039.97,108.65c0,2.38-1.19,3.7-3.17,7.41-3.97,7.54-5.82,14.42-5.82,18.92,0,3.97,1.72,5.42,3.57,5.42,2.51,0,6.49-.79,15.48-13.63.53-.79,1.33-1.19,1.99-1.19.92,0,1.72.79,1.72,1.99,0,.66-.13,1.32-.66,2.25-4.68,9.45-14.13,21.92-25.67,22.09-7.69.12-11.51-6.75-11.51-14.95,0-6.08,1.85-14.56,4.5-21.17,3.29-8.2,7.14-15.08,12.04-15.08,4.76,0,7.54,3.57,7.54,7.94ZM1032.16,85.63c0-5.95,5.16-10.72,11.38-10.72,6.35,0,8.86,4.5,8.86,8.33,0,5.95-5.55,10.06-11.77,10.06-4.77,0-8.47-3.17-8.47-7.67Z" fill="#6abc46"/>
      </g>
    </g>
  </g>
</svg>