<?xml version="1.0" encoding="UTF-8"?>
<svg id="b" data-name="Layer 2" xmlns="http://www.w3.org/2000/svg" viewBox="0 0 292.82 178.29">
  <g id="c" data-name="Layer 1">
    <g>
      <path d="M284.87,56.27c-27.11-4.19-41.61-16.29-52.04-24.15-9.01-6.79-16.94-14.89-26.04-21.56-8.64-6.33-19.62-12.7-30.73-9.87-3.66.93-7.1,2.62-10.25,4.68-6.3,4.13-11.43,9.61-16.57,15.04-5.12,5.42-10.45,11.27-18.61,10.54-3.95-.35-7.6-2.16-11.29-3.63-3.92-1.57-7.58-2.36-11.8-1.43-9.85,2.16-14.68,12.38-20.92,19.32-4.64,5.17-7.04,9.3-19.11,11.15,8.4.97,13.65-.41,18.94-4.74,6.85-5.61,13.11-15.97,22.64-17.05,8.04-.91,16.59,4.91,22.96,8.51,12.3,6.94,24.19,9.07,37.48,4.27-8.39,1.21-19.22-.72-21.25-6.37-.9-2.49-.35-5.45,1.21-7.59,8.01-10.96,18.08-18.62,23.25-20.96,10.04-4.54,19.42-.06,27.53,6.04,25.53,19.23,46.52,38.17,84.61,37.78Z" fill="#6abc46"/>
      <g>
        <path d="M202.77,82.46c.74-3.6,3.98-7.84,7.67-8.68,2.27-.52,10.43-.63,11.23,2.11l.1,58.48c-.61,7.11-6.04,8.49-12.32,7.85-5.75-.58-7.49-4.87-7.68-10.09-.77.01-3.58,4.09-4.64,5.06-9.21,8.36-24.59,7.26-34.3.37-15.29-10.84-17.07-37.06-7.22-51.99,10.44-15.81,34.83-17.79,47.16-3.1ZM183.71,88.64c-20.67,2.14-19.89,36.77.33,38.59,6.96.63,14.82-3.39,17.13-10.23,1.06-3.13,1.28-13.99.81-17.4-.16-1.16-2.06-4.24-2.86-5.22-3.66-4.51-9.78-6.33-15.42-5.75Z" fill="#235a30"/>
        <path d="M238.1,89.33c-6.76-1.12-7.25-12.99-.7-14.83,16.47-.79,33.32-.95,49.77.09,4.4,1.7,5.01,6.68,3.85,10.72-.88,3.08-6.2,8.59-8.49,11.29-8.14,9.59-16.78,18.8-24.83,28.47-.11.82.03.52.59.6,7.73,1.03,24.93-1.85,31.12,1.19,4.68,2.3,4.5,11.36-.19,13.57-1.43.67-3.47.9-5.05,1-14.54.97-30.17-.76-44.83-.02-7.58-.77-8.33-8.61-5.39-14.27,9.23-12.1,21.1-23.16,30.21-35.2.58-.76,1.35-1.56,1.22-2.61h-27.26Z" fill="#235a30"/>
        <path d="M36.11,47.44c.85-.88,4.43-1.65,5.74-1.73,8.2-.5,12.36,4.26,13.5,11.97l.04,77.08c-.73,4.2-2.79,6.52-7.11,7.02-4.81.56-10.84-.01-12.16-5.52-1.2-28.8-.16-57.83-.53-86.72.05-.65.06-1.62.52-2.1Z" fill="#235a30"/>
        <path d="M20.28,81.84c-.61-7.08-4.34-8.8-10.99-8.56-4.85.17-8.16,2.35-8.77,7.41,1.02,17.2-1.51,36.29-.06,53.27.6,6.97,5.76,8.41,11.94,7.87,4.72-.41,7.11-2.91,7.82-7.53-1.01-16.94,1.5-35.74.06-52.46Z" fill="#235a30"/>
        <path d="M118.38,128.5c-4.01,4.61-8.34,8.13-14.45,9.57-15.43,3.63-31.12-4.22-35.99-19.49-8.29-25.99,11.01-52.92,39.13-44.79,4.9,1.42,8.55,4.18,12.31,7.46,3.02-6.38,7.09-8.46,14.14-7.68,2.67.3,4.8.99,5.06,3.82,1.63,17.82-1.27,38.09,0,56.16.73,28.35-20.87,37.88-46.13,33.99-8.14-1.25-20.69-6.39-21.67-15.88-.41-3.95,3.56-11.05,7.82-10.27.58.11,4.65,4.89,5.9,5.84,7.75,5.89,25.7,7.17,31.54-1.9.63-.98,2.34-5.18,2.34-6.14v-10.7ZM99.72,88.23c-13.04,1.57-17.9,16.6-12.24,27.36,5.78,10.99,24.74,10.18,29.77-.95,1.34-2.97,1.73-13.76,1.12-17.01-.14-.77-1.62-2.79-2.2-3.46-3.92-4.53-10.58-6.65-16.45-5.94Z" fill="#235a30"/>
      </g>
      <g>
        <path d="M162.8,170.62c0,4.23-4.18,7.67-9.69,7.67-4.95,0-7.97-2.81-7.97-5.8,0-1.98,1.36-3.64,3.29-3.64,1.16,0,2.04.77,2.04,1.33s-.95,1.04-.95,2.64c0,1.95,1.54,3.76,4.35,3.76,2.64,0,4.68-1.75,4.68-4.24,0-4.98-8.89-5.51-8.89-11.25,0-3.88,4.18-6.84,9.09-6.84,2.96,0,5.72,1.13,5.72,3.58,0,2.28-2.25,3.26-3.97,3.26-1.45,0-2.1-.56-2.1-1.04,0-.15.09-.27.24-.3,1.18-.36,1.87-.98,1.87-1.98,0-1.13-1.04-1.75-2.31-1.75-1.98,0-4.32,1.27-4.32,3.64,0,4.5,8.91,4.92,8.91,10.96Z" fill="#6abc46"/>
        <path d="M175.62,166.39c0,1.57-1.3,3.61-2.16,4.56-.03.24-.03.5-.03.74,0,.89.41,1.3.92,1.3.56,0,1.45-.18,3.47-3.05.12-.18.3-.27.44-.27.21,0,.39.18.39.44,0,.15-.03.3-.15.5-2.22,4-4.21,4.95-5.75,4.95-1.21,0-1.95-.71-2.34-1.75-1.33,1.42-2.58,1.75-3.58,1.75-1.9,0-2.9-1.51-2.9-3.35,0-1.36.41-3.26,1.01-4.74.74-1.83,1.6-3.38,2.7-3.38,1.07,0,1.69.8,1.69,1.78,0,.53-.24.83-.71,1.66-.95,1.69-1.42,2.96-1.42,4.15,0,1.24.47,1.54,1.01,1.54.71,0,1.36-.38,1.98-.98v-.03c0-1.36.5-3.26,1.1-4.74.74-1.83,1.78-2.87,2.87-2.87,1.07,0,1.48.8,1.48,1.78ZM168.25,160.85c0-1.15,1.01-2.19,2.16-2.19.89,0,1.45.68,1.45,1.51,0,1.24-.98,2.22-2.1,2.22-.86,0-1.51-.68-1.51-1.54ZM172.63,161c0-1.15,1.01-2.19,2.16-2.19.89,0,1.45.68,1.45,1.51,0,1.24-.98,2.22-2.1,2.22-.86,0-1.51-.68-1.51-1.54Z" fill="#6abc46"/>
        <path d="M183.82,161.53c-.52.92-1.16,2.19-1.69,3.64.56-.15,1.07-.3,1.51-.5,1.3-.62,1.42-1.13,1.69-1.13.33,0,.74.38.74,1.18,0,1.39-3.65,1.99-4.68,2.81-.38.3-.5,2.43-.5,3.61,0,1.3.36,2.01,1.01,2.01.56,0,1.63-.36,3.64-3.23.12-.18.3-.27.44-.27.21,0,.38.18.38.44,0,.15-.03.3-.15.5-2.22,4-4.12,4.95-5.92,4.95-1.78,0-2.75-1.48-2.75-3.55,0-.71.09-1.84.33-2.96.12-.56.27-1.21.44-1.87-.71-.33-1.21-.92-1.21-1.54,0-.21.09-.38.24-.38.21,0,.53.27,1.39.27h.06c.53-1.72,1.18-3.44,1.9-4.8.94-1.81,1.72-2.78,2.75-2.78.68,0,1.6.53,1.6,1.51,0,.36-.68,1.14-1.21,2.07Z" fill="#6abc46"/>
        <path d="M212.76,155.93c0,.98-1.01,1.57-2.4,1.57-.36,0-.71-.03-1.07-.09-3.17,2.75-5.63,8.41-5.63,12.38,0,2.66,1.1,4.5,3.26,4.5,1.07,0,2.43-.44,3.73-1.98,0-.06,0-.09,0-.15,0-.33.03-.74.06-1.07.5-4.15,3.38-14.66,7.2-14.66,1.27,0,1.66,1.13,1.66,2.49,0,2.75-2.67,8.32-5.15,12.29,0,1.66.44,2.28,1.01,2.28.8,0,2.07-.68,4.09-3.55.12-.18.3-.27.44-.27.21,0,.38.18.38.44,0,.15-.03.33-.15.5-2.22,4-4.35,5.89-6.72,5.89-1.18,0-2.01-.8-2.46-1.98-1.75,2.1-4.09,3.35-6.28,3.35-3.49,0-5.42-3.05-5.42-6.9,0-5.48,3.85-11.49,7.08-14.24-1.27-.33-2.61-.62-3.97-.62-3.11,0-5.36,1.57-5.36,3.61,0,1.07.62,1.78,1.54,1.78.71,0,1.18-.35,1.42-.56.12-.09.21-.15.33-.15.21,0,.41.21.41.74,0,1.39-1.54,3.46-4,3.46-2.13,0-3.82-1.54-3.82-4,0-3.58,3.64-6.46,9.3-6.46,2.16,0,4.09.44,5.92.74.59-.36,1.48-.74,2.55-.74,1.18,0,2.04.47,2.04,1.39ZM211.16,152.17c0-1.27,1.13-2.43,2.4-2.43.98,0,1.63.77,1.63,1.69,0,1.36-1.1,2.46-2.34,2.46-.98,0-1.69-.77-1.69-1.72ZM216.58,152.47c0-1.27,1.13-2.43,2.43-2.43.98,0,1.6.77,1.6,1.69,0,1.36-1.1,2.46-2.34,2.46-.95,0-1.69-.77-1.69-1.72Z" fill="#6abc46"/>
        <path d="M220.64,167.01c-.56-.56-.95-1.3-.95-2.13,0-1.18.77-2.19,1.75-2.19.74,0,1.21.71,1.21,1.81,0,.36-.09.89-.27,1.54h.36c.86,0,1.95-.3,2.43-.65.3-.24.53-.33.71-.33.47,0,1.15.62,1.15,1.36,0,.44-.24.89-.59,1.45-.68,1.1-1.66,2.72-1.66,4.21,0,.56.33.83.68.83.42,0,1.21-.09,3.23-2.96.12-.18.3-.27.44-.27.21,0,.38.18.38.44,0,.15-.03.3-.15.5-2.22,4-3.88,4.95-5.48,4.95-1.48,0-2.58-1.04-2.58-2.58,0-1.42,1.21-3.32,2.16-4.47-.65-.15-1.3-.41-1.87-.74-.47,1.13-1.1,2.28-1.63,3.23-.21.33-.71.53-1.07.53-.21,0-.33-.06-.33-.21,0-.12.12-.3.15-.33.71-1.01,1.51-2.52,1.9-4Z" fill="#6abc46"/>
        <path d="M239.71,166.39c0,1.57-1.3,3.61-2.16,4.56-.03.24-.03.5-.03.74,0,.89.41,1.3.92,1.3.56,0,1.45-.18,3.47-3.05.12-.18.3-.27.44-.27.21,0,.38.18.38.44,0,.15-.03.3-.15.5-2.22,4-4.21,4.95-5.75,4.95-1.21,0-1.95-.71-2.34-1.75-1.33,1.42-2.58,1.75-3.58,1.75-1.9,0-2.9-1.51-2.9-3.35,0-1.36.41-3.26,1.01-4.74.74-1.83,1.6-3.38,2.7-3.38,1.07,0,1.69.8,1.69,1.78,0,.53-.24.83-.71,1.66-.95,1.69-1.42,2.96-1.42,4.15,0,1.24.47,1.54,1.01,1.54.71,0,1.36-.38,1.98-.98v-.03c0-1.36.5-3.26,1.1-4.74.74-1.83,1.78-2.87,2.87-2.87,1.07,0,1.48.8,1.48,1.78ZM232.34,160.85c0-1.15,1.01-2.19,2.16-2.19.89,0,1.45.68,1.45,1.51,0,1.24-.98,2.22-2.1,2.22-.86,0-1.51-.68-1.51-1.54ZM236.72,161c0-1.15,1.01-2.19,2.16-2.19.89,0,1.45.68,1.45,1.51,0,1.24-.98,2.22-2.1,2.22-.86,0-1.51-.68-1.51-1.54Z" fill="#6abc46"/>
        <path d="M244.13,172.04c1.42-3.26,4.26-7.94,6.9-7.94.83,0,1.81.56,1.81,2.07,0,2.37-1.92,4.65-1.92,6.01,0,.44.24.71.5.71.41,0,1.21-.09,3.23-2.96.12-.18.3-.27.44-.27.21,0,.38.18.38.44,0,.15-.03.3-.15.5-2.22,4-3.85,4.95-5.3,4.95-1.39,0-2.43-1.07-2.43-2.61,0-2.04,1.54-4.21,1.54-5.27,0-.21-.12-.35-.3-.35-.71,0-2.52,2.55-3.55,5.3-.65,1.74-.83,2.93-1.81,2.93-1.04,0-1.63-.59-1.98-1.48-.15-.39-.24-1.3-.24-2.07,0-.71.18-1.78.41-2.9.56-2.75,1.24-3.97,2.37-3.97.89,0,1.6.8,1.6,1.66,0,.92-1.16,2.37-1.51,5.24Z" fill="#6abc46"/>
        <path d="M258.25,168.16c-.27,1.21-.44,2.37-.44,3.29,0,1.07.27,1.72.92,1.72.56,0,1.63-.36,3.64-3.23.12-.18.3-.27.44-.27.21,0,.38.18.38.44,0,.15-.03.3-.15.5-2.22,4-4.12,4.95-5.92,4.95-1.69,0-2.78-1.24-2.78-3.79,0-4.26,4.24-17.53,8.23-17.53,1.45,0,2.07,1.04,2.07,2.96,0,2.81-2.25,7.43-6.4,10.96ZM258.79,166.21c2.87-3.17,4.03-6.19,4.03-7.2,0-.3-.09-.47-.33-.47-.71,0-2.55,3.85-3.7,7.67Z" fill="#6abc46"/>
        <path d="M273.12,166.3c.09-.3.27-.41.47-.41.3,0,.65.3.65.8,0,.15-.03.35-.12.53-1.51,3.94-4.12,8.35-8.62,8.35-2.01,0-4.15-1.39-4.15-4.24,0-3.58,3.05-7.23,6.34-7.23,1.87,0,2.93,1.15,2.93,2.49,0,2.01-2.31,3.97-5.86,4.41.18,1.24.77,2.19,2.1,2.19,2.22,0,4.95-2.04,6.25-6.9ZM264.71,169.82c1.69-.44,3.29-1.87,3.29-3.41,0-.62-.33-.89-.62-.89-1.07,0-2.49,2.19-2.67,4.29Z" fill="#6abc46"/>
        <path d="M274.57,166.03h.36c.86,0,1.95-.3,2.43-.65.3-.24.53-.33.71-.33.47,0,1.16.62,1.16,1.36,0,.44-.24.89-.59,1.45-.68,1.1-1.66,2.72-1.66,4.21,0,.56.33.83.68.83.41,0,1.21-.09,3.23-2.96.12-.18.3-.27.44-.27.21,0,.38.18.38.44,0,.15-.03.3-.15.5-2.22,4-3.88,4.95-5.48,4.95-1.48,0-2.58-1.04-2.58-2.58,0-1.42,1.21-3.32,2.16-4.47-1.9-.44-3.79-1.75-3.79-3.64,0-1.18.77-2.19,1.75-2.19.74,0,1.21.71,1.21,1.81,0,.36-.09.89-.27,1.54Z" fill="#6abc46"/>
        <path d="M285.59,165.88c0,.53-.27.83-.71,1.66-.89,1.69-1.3,3.23-1.3,4.24,0,.89.38,1.21.8,1.21.56,0,1.45-.18,3.47-3.05.12-.18.3-.27.44-.27.21,0,.38.18.38.44,0,.15-.03.3-.15.5-2.22,4-4.21,4.95-5.75,4.95-1.75,0-2.58-1.51-2.58-3.35,0-1.36.41-3.26,1.01-4.74.74-1.83,1.6-3.38,2.7-3.38,1.07,0,1.69.8,1.69,1.78ZM283.84,160.73c0-1.33,1.16-2.4,2.55-2.4,1.42,0,1.98,1.01,1.98,1.87,0,1.33-1.24,2.25-2.64,2.25-1.07,0-1.9-.71-1.9-1.72Z" fill="#6abc46"/>
      </g>
    </g>
  </g>
</svg>