<?xml version="1.0" encoding="UTF-8"?>
<svg id="b" data-name="Layer 2" xmlns="http://www.w3.org/2000/svg" viewBox="0 0 128.48 78.23">
  <g id="c" data-name="Layer 1">
    <g>
      <path d="M125,24.69c-11.9-1.84-18.26-7.15-22.83-10.59-3.95-2.98-7.43-6.53-11.43-9.46-3.79-2.78-8.61-5.57-13.48-4.33-1.61.41-3.12,1.15-4.5,2.05-2.76,1.81-5.02,4.22-7.27,6.6-2.25,2.38-4.58,4.95-8.17,4.63-1.74-.16-3.34-.95-4.95-1.59-1.72-.69-3.32-1.03-5.18-.63-4.32.95-6.44,5.43-9.18,8.48-2.04,2.27-3.09,4.08-8.39,4.89,3.69.43,5.99-.18,8.31-2.08,3-2.46,5.75-7.01,9.93-7.48,3.53-.4,7.28,2.15,10.07,3.73,5.4,3.05,10.61,3.98,16.44,1.87-3.68.53-8.43-.32-9.33-2.79-.39-1.09-.15-2.39.53-3.33,3.51-4.81,7.93-8.17,10.2-9.19,4.41-1.99,8.52-.03,12.08,2.65,11.2,8.44,20.41,16.75,37.12,16.58Z" fill="#fff"/>
      <g>
        <path d="M88.97,36.18c.33-1.58,1.74-3.44,3.37-3.81.99-.23,4.58-.28,4.93.93l.04,25.66c-.27,3.12-2.65,3.73-5.41,3.45-2.52-.26-3.29-2.14-3.37-4.43-.34,0-1.57,1.8-2.03,2.22-4.04,3.67-10.79,3.19-15.05.16-6.71-4.76-7.49-16.26-3.17-22.81,4.58-6.94,15.28-7.81,20.69-1.36ZM80.61,38.89c-9.07.94-8.73,16.14.15,16.93,3.05.27,6.5-1.49,7.52-4.49.46-1.37.56-6.14.36-7.63-.07-.51-.9-1.86-1.25-2.29-1.61-1.98-4.29-2.78-6.76-2.52Z" fill="#235a30"/>
        <path d="M104.47,39.2c-2.97-.49-3.18-5.7-.31-6.51,7.23-.35,14.62-.42,21.84.04,1.93.74,2.2,2.93,1.69,4.71-.39,1.35-2.72,3.77-3.73,4.96-3.57,4.21-7.36,8.25-10.9,12.49-.05.36.01.23.26.26,3.39.45,10.94-.81,13.65.52,2.05,1.01,1.98,4.98-.09,5.95-.63.3-1.52.39-2.22.44-6.38.43-13.24-.33-19.67-.01-3.33-.34-3.66-3.78-2.37-6.26,4.05-5.31,9.26-10.16,13.25-15.45.25-.34.59-.69.54-1.15h-11.96Z" fill="#235a30"/>
        <path d="M15.85,20.81c.37-.39,1.94-.72,2.52-.76,3.6-.22,5.42,1.87,5.92,5.25l.02,33.82c-.32,1.84-1.23,2.86-3.12,3.08-2.11.25-4.76,0-5.34-2.42-.53-12.64-.07-25.38-.23-38.05.02-.28.03-.71.23-.92Z" fill="#235a30"/>
        <path d="M8.9,35.91c-.27-3.1-1.91-3.86-4.82-3.76-2.13.08-3.58,1.03-3.85,3.25.45,7.55-.66,15.92-.03,23.37.26,3.06,2.53,3.69,5.24,3.45,2.07-.18,3.12-1.28,3.43-3.3-.44-7.43.66-15.68.03-23.02Z" fill="#235a30"/>
        <path d="M51.94,56.38c-1.76,2.02-3.66,3.57-6.34,4.2-6.77,1.59-13.66-1.85-15.79-8.55-3.64-11.41,4.83-23.22,17.17-19.65,2.15.62,3.75,1.83,5.4,3.27,1.32-2.8,3.11-3.71,6.21-3.37,1.17.13,2.11.43,2.22,1.68.71,7.82-.56,16.71,0,24.64.32,12.44-9.16,16.62-20.24,14.91-3.57-.55-9.08-2.81-9.51-6.97-.18-1.73,1.56-4.85,3.43-4.51.25.05,2.04,2.15,2.59,2.56,3.4,2.58,11.28,3.15,13.84-.84.28-.43,1.03-2.27,1.03-2.69v-4.69ZM43.75,38.71c-5.72.69-7.85,7.29-5.37,12.01,2.53,4.82,10.86,4.46,13.06-.42.59-1.3.76-6.04.49-7.47-.06-.34-.71-1.22-.96-1.52-1.72-1.99-4.64-2.92-7.22-2.61Z" fill="#235a30"/>
      </g>
      <g>
        <path d="M71.43,74.86c0,1.86-1.83,3.37-4.25,3.37-2.17,0-3.5-1.23-3.5-2.55,0-.87.6-1.6,1.44-1.6.51,0,.9.34.9.58s-.42.45-.42,1.16c0,.86.68,1.65,1.91,1.65,1.16,0,2.05-.77,2.05-1.86,0-2.18-3.9-2.42-3.9-4.94,0-1.7,1.83-3,3.99-3,1.3,0,2.51.49,2.51,1.57,0,1-.99,1.43-1.74,1.43-.64,0-.92-.25-.92-.45,0-.06.04-.12.1-.13.52-.16.82-.43.82-.87,0-.49-.45-.77-1.01-.77-.87,0-1.9.56-1.9,1.6,0,1.97,3.91,2.16,3.91,4.81Z" fill="#fff"/>
        <path d="M77.06,73.01c0,.69-.57,1.59-.95,2-.01.1-.01.22-.01.32,0,.39.18.57.4.57.25,0,.64-.08,1.52-1.34.05-.08.13-.12.19-.12.09,0,.17.08.17.2,0,.06-.01.13-.07.22-.97,1.75-1.85,2.17-2.52,2.17-.53,0-.86-.31-1.03-.77-.58.62-1.13.77-1.57.77-.83,0-1.27-.66-1.27-1.47,0-.6.18-1.43.44-2.08.32-.8.7-1.48,1.18-1.48s.74.35.74.78c0,.23-.1.36-.31.73-.42.74-.62,1.3-.62,1.82,0,.55.21.68.44.68.31,0,.6-.17.87-.43h0c0-.61.22-1.44.48-2.09.32-.8.78-1.26,1.26-1.26s.65.35.65.78ZM73.82,70.58c0-.51.44-.96.95-.96.39,0,.64.3.64.66,0,.55-.43.97-.92.97-.38,0-.66-.3-.66-.68ZM75.75,70.64c0-.51.44-.96.95-.96.39,0,.64.3.64.66,0,.55-.43.97-.92.97-.38,0-.66-.3-.66-.68Z" fill="#fff"/>
        <path d="M80.66,70.88c-.23.4-.51.96-.74,1.6.25-.06.47-.13.66-.22.57-.27.62-.49.74-.49.14,0,.32.17.32.52,0,.61-1.6.87-2.05,1.23-.17.13-.22,1.07-.22,1.59,0,.57.16.88.44.88.25,0,.71-.16,1.6-1.42.05-.08.13-.12.19-.12.09,0,.17.08.17.2,0,.06-.01.13-.06.22-.97,1.75-1.81,2.17-2.6,2.17s-1.21-.65-1.21-1.56c0-.31.04-.81.14-1.3.05-.25.12-.53.19-.82-.31-.14-.53-.4-.53-.68,0-.09.04-.17.1-.17.09,0,.23.12.61.12h.03c.23-.75.52-1.51.83-2.11.41-.79.75-1.22,1.21-1.22.3,0,.7.23.7.66,0,.16-.3.5-.53.91Z" fill="#fff"/>
        <path d="M93.35,68.42c0,.43-.44.69-1.05.69-.16,0-.31-.01-.47-.04-1.39,1.21-2.47,3.69-2.47,5.43,0,1.17.48,1.97,1.43,1.97.47,0,1.07-.19,1.64-.87v-.06c0-.14.01-.32.03-.47.22-1.82,1.48-6.43,3.16-6.43.56,0,.73.49.73,1.09,0,1.21-1.17,3.65-2.26,5.39,0,.73.2,1,.44,1,.35,0,.91-.3,1.79-1.56.05-.08.13-.12.2-.12.09,0,.17.08.17.2,0,.06-.01.14-.06.22-.97,1.75-1.91,2.59-2.95,2.59-.52,0-.88-.35-1.08-.87-.77.92-1.79,1.47-2.76,1.47-1.53,0-2.38-1.34-2.38-3.03,0-2.4,1.69-5.04,3.11-6.25-.56-.14-1.14-.27-1.74-.27-1.36,0-2.35.69-2.35,1.59,0,.47.27.78.68.78.31,0,.52-.16.62-.25.05-.04.09-.06.14-.06.09,0,.18.09.18.32,0,.61-.68,1.52-1.75,1.52-.94,0-1.68-.68-1.68-1.75,0-1.57,1.6-2.83,4.08-2.83.95,0,1.79.2,2.6.32.26-.16.65-.32,1.12-.32.52,0,.9.21.9.61ZM92.65,66.77c0-.56.49-1.07,1.05-1.07.43,0,.71.34.71.74,0,.6-.48,1.08-1.03,1.08-.43,0-.74-.34-.74-.75ZM95.03,66.9c0-.56.49-1.07,1.07-1.07.43,0,.7.34.7.74,0,.6-.48,1.08-1.03,1.08-.42,0-.74-.34-.74-.75Z" fill="#fff"/>
        <path d="M96.81,73.28c-.25-.25-.42-.57-.42-.94,0-.52.34-.96.77-.96.32,0,.53.31.53.79,0,.16-.04.39-.12.68h.16c.38,0,.86-.13,1.07-.29.13-.1.23-.14.31-.14.21,0,.51.27.51.6,0,.19-.1.39-.26.64-.3.48-.73,1.2-.73,1.85,0,.25.14.36.3.36.18,0,.53-.04,1.42-1.3.05-.08.13-.12.2-.12.09,0,.17.08.17.2,0,.06-.01.13-.06.22-.97,1.75-1.7,2.17-2.4,2.17-.65,0-1.13-.45-1.13-1.13,0-.62.53-1.46.95-1.96-.29-.06-.57-.18-.82-.32-.21.49-.48,1-.71,1.42-.09.14-.31.23-.47.23-.09,0-.14-.03-.14-.09,0-.05.05-.13.06-.14.31-.44.66-1.1.83-1.75Z" fill="#fff"/>
        <path d="M105.18,73.01c0,.69-.57,1.59-.95,2-.01.1-.01.22-.01.32,0,.39.18.57.4.57.25,0,.64-.08,1.52-1.34.05-.08.13-.12.2-.12.09,0,.17.08.17.2,0,.06-.01.13-.07.22-.97,1.75-1.85,2.17-2.52,2.17-.53,0-.86-.31-1.03-.77-.58.62-1.13.77-1.57.77-.83,0-1.27-.66-1.27-1.47,0-.6.18-1.43.44-2.08.32-.81.7-1.48,1.18-1.48s.74.35.74.78c0,.23-.1.36-.31.73-.42.74-.62,1.3-.62,1.82,0,.55.21.68.44.68.31,0,.6-.17.87-.43h0c0-.61.22-1.44.48-2.09.32-.8.78-1.26,1.26-1.26s.65.35.65.78ZM101.94,70.58c0-.51.44-.96.95-.96.39,0,.64.3.64.66,0,.55-.43.97-.92.97-.38,0-.66-.3-.66-.68ZM103.87,70.64c0-.51.44-.96.95-.96.39,0,.64.3.64.66,0,.55-.43.97-.92.97-.38,0-.66-.3-.66-.68Z" fill="#fff"/>
        <path d="M107.12,75.49c.62-1.43,1.87-3.48,3.03-3.48.36,0,.79.25.79.91,0,1.04-.84,2.04-.84,2.64,0,.19.1.31.22.31.18,0,.53-.04,1.42-1.3.05-.08.13-.12.2-.12.09,0,.17.08.17.2,0,.06-.01.13-.07.22-.97,1.75-1.69,2.17-2.33,2.17s-1.07-.47-1.07-1.14c0-.9.68-1.85.68-2.31,0-.09-.05-.16-.13-.16-.31,0-1.11,1.12-1.56,2.33-.29.77-.36,1.29-.79,1.29-.45,0-.71-.26-.87-.65-.07-.17-.1-.57-.1-.91,0-.31.08-.78.18-1.27.25-1.21.55-1.74,1.04-1.74.39,0,.7.35.7.73,0,.4-.51,1.04-.66,2.3Z" fill="#fff"/>
        <path d="M113.32,73.79c-.12.53-.2,1.04-.2,1.44,0,.47.12.75.4.75.25,0,.71-.16,1.6-1.42.05-.08.13-.12.19-.12.09,0,.17.08.17.2,0,.06-.01.13-.06.22-.97,1.75-1.81,2.17-2.6,2.17-.74,0-1.22-.55-1.22-1.66,0-1.87,1.86-7.69,3.61-7.69.64,0,.91.45.91,1.3,0,1.23-.99,3.26-2.81,4.81ZM113.55,72.93c1.26-1.39,1.77-2.72,1.77-3.16,0-.13-.04-.21-.14-.21-.31,0-1.12,1.69-1.62,3.37Z" fill="#fff"/>
        <path d="M119.84,72.97c.04-.13.12-.18.21-.18.13,0,.29.13.29.35,0,.06-.01.16-.05.23-.66,1.73-1.81,3.66-3.78,3.66-.88,0-1.82-.61-1.82-1.86,0-1.57,1.34-3.17,2.78-3.17.82,0,1.29.51,1.29,1.09,0,.88-1.01,1.74-2.57,1.94.08.55.34.96.92.96.97,0,2.17-.9,2.74-3.03ZM116.15,74.51c.74-.19,1.44-.82,1.44-1.49,0-.27-.14-.39-.27-.39-.47,0-1.09.96-1.17,1.88Z" fill="#fff"/>
        <path d="M120.48,72.85h.16c.38,0,.86-.13,1.07-.29.13-.1.23-.14.31-.14.21,0,.51.27.51.6,0,.19-.1.39-.26.64-.3.48-.73,1.2-.73,1.85,0,.25.14.36.3.36.18,0,.53-.04,1.42-1.3.05-.08.13-.12.2-.12.09,0,.17.08.17.2,0,.06-.01.13-.06.22-.97,1.75-1.7,2.17-2.4,2.17-.65,0-1.13-.45-1.13-1.13,0-.62.53-1.46.95-1.96-.83-.19-1.66-.77-1.66-1.6,0-.52.34-.96.77-.96.32,0,.53.31.53.79,0,.16-.04.39-.12.68Z" fill="#fff"/>
        <path d="M125.31,72.79c0,.23-.12.36-.31.73-.39.74-.57,1.42-.57,1.86,0,.39.17.53.35.53.25,0,.64-.08,1.52-1.34.05-.08.13-.12.2-.12.09,0,.17.08.17.2,0,.06-.01.13-.06.22-.97,1.75-1.85,2.17-2.52,2.17-.77,0-1.13-.66-1.13-1.47,0-.6.18-1.43.44-2.08.32-.81.7-1.48,1.18-1.48s.74.35.74.78ZM124.54,70.52c0-.58.51-1.05,1.12-1.05s.87.44.87.82c0,.58-.55.99-1.16.99-.47,0-.83-.31-.83-.75Z" fill="#fff"/>
      </g>
    </g>
  </g>
</svg>