<?xml version="1.0" encoding="UTF-8"?>
<svg id="b" data-name="Layer 2" xmlns="http://www.w3.org/2000/svg" viewBox="0 0 215.8 158.85">
  <g id="c" data-name="Layer 1">
    <g>
      <path d="M26.86,140.1c22.48-6.46,50.55-10.29,81-10.27,34.17.03,65.34,4.9,88.97,12.9,14.8-15.68,20.32-46.97,18.7-60.03-2.81-22.6-1.96-43.9-31.46-57.88-7.24-3.43-13.06-12.08-19.36-16.85-8.66-6.57-15.6-8.55-26.62-7.83-13.92.92-19.05,6.23-29.76,13.2-5.4,3.51-5.94,1.43-11.27.33-7.37-1.52-16.17,2.84-21.77,7.43-5.35,4.39-9.01,11.67-15.28,14.72-3.51,1.71-6.1.91-9.62.64C16.2,33.84,3.62,51.66,2.64,58.75c-1.7,12.35-4.48,32.59-.9,44.9,4.89,16.8,14.45,29.59,25.12,36.46Z" fill="#6abc46"/>
      <path d="M200.32,51.72c-17.45-2.71-26.77-10.51-33.49-15.57-5.8-4.37-10.89-9.59-16.75-13.9-5.56-4.08-12.63-8.19-19.77-6.37-2.36.6-4.57,1.68-6.6,3.01-4.06,2.66-7.36,6.18-10.67,9.67-3.3,3.49-6.73,7.25-11.99,6.78-2.55-.23-4.89-1.4-7.27-2.35-2.52-1.01-4.88-1.52-7.6-.93-6.34,1.39-9.46,7.96-13.47,12.43-2.99,3.32-4.54,5.98-12.31,7.17,5.41.63,8.79-.26,12.2-3.04,4.41-3.6,8.45-10.27,14.58-10.96,5.18-.58,10.67,3.17,14.77,5.49,7.91,4.48,15.57,5.85,24.12,2.77-5.4.78-12.37-.48-13.68-4.11-.58-1.6-.22-3.51.79-4.88,5.16-7.05,11.65-11.97,14.97-13.48,6.47-2.92,12.5-.03,17.72,3.91,16.43,12.39,29.93,24.6,54.44,24.36Z" fill="#235a30"/>
      <g>
        <path d="M144.82,72.14c.45-2.15,2.38-4.68,4.59-5.18,1.35-.31,6.23-.37,6.7,1.26l.03,34.92c-.37,4.24-3.61,5.07-7.36,4.68-3.43-.35-4.47-2.91-4.58-6.03-.46,0-2.14,2.44-2.77,3.02-5.5,4.99-14.69,4.32-20.48.21-9.12-6.48-10.18-22.14-4.28-31.05,6.24-9.43,20.81-10.61,28.16-1.83ZM133.44,75.82c-12.34,1.27-11.9,21.95.18,23.05,4.15.38,8.85-2.02,10.23-6.1.63-1.87.77-8.35.49-10.39-.1-.7-1.23-2.53-1.7-3.12-2.18-2.7-5.84-3.78-9.2-3.44Z" fill="#fff"/>
        <path d="M165.92,76.25c-4.04-.67-4.32-7.76-.41-8.86,9.83-.47,19.89-.55,29.72.08,2.63,1.01,2.99,3.99,2.29,6.41-.53,1.84-3.7,5.13-5.08,6.74-4.87,5.73-10.03,11.22-14.84,16.99-.06.49.02.31.35.36,4.61.62,14.88-1.09,18.58.73,2.79,1.38,2.68,6.78-.12,8.1-.85.4-2.07.53-3.02.6-8.69.57-18.02-.47-26.77-.04-4.53-.46-4.97-5.15-3.21-8.52,5.52-7.22,12.61-13.82,18.06-21.01.35-.46.81-.93.73-1.56h-16.28Z" fill="#fff"/>
        <path d="M45.33,51.14c.51-.52,2.65-.98,3.43-1.03,4.9-.3,7.38,2.55,8.06,7.15v46.03c-.45,2.51-1.68,3.89-4.26,4.19-2.87.33-6.47-.01-7.26-3.3-.7-17.2-.07-34.53-.27-51.78.03-.39.04-.97.31-1.26Z" fill="#fff"/>
        <path d="M35.85,71.68c-.36-4.23-2.59-5.26-6.56-5.12-2.9.1-4.87,1.4-5.24,4.42.6,10.27-.92,21.67-.06,31.81.35,4.16,3.43,5.03,7.13,4.71,2.82-.24,4.25-1.73,4.67-4.49-.6-10.11.91-21.34.06-31.33Z" fill="#fff"/>
        <path d="M94.41,99.58c-2.4,2.75-4.99,4.85-8.64,5.71-9.21,2.16-18.58-2.53-21.48-11.65-4.94-15.53,6.6-31.6,23.39-26.72,2.93.85,5.1,2.5,7.35,4.46,1.81-3.81,4.24-5.05,8.45-4.58,1.59.18,2.87.59,3.02,2.28.96,10.64-.78,22.74-.03,33.54.42,16.93-12.48,22.61-27.56,20.27-4.86-.75-12.35-3.83-12.93-9.49-.24-2.36,2.13-6.6,4.68-6.13.35.06,2.78,2.92,3.52,3.49,4.62,3.52,15.34,4.29,18.83-1.12.38-.58,1.4-3.09,1.4-3.66v-6.39ZM83.29,75.53c-7.79.93-10.7,9.91-7.32,16.33s14.77,6.09,17.78-.55c.8-1.78,1.04-8.22.68-10.16-.09-.46-.97-1.67-1.31-2.06-2.34-2.7-6.31-3.97-9.82-3.55Z" fill="#fff"/>
      </g>
      <g>
        <path d="M68.45,152.2c.15,3.45-3.14,6.39-7.64,6.63-4.04.22-6.64-1.92-6.79-4.35-.1-1.62.94-3.04,2.53-3.13.95-.06,1.72.53,1.74.99.03.46-.73.89-.66,2.19.09,1.59,1.43,2.99,3.73,2.87,2.16-.11,3.76-1.62,3.66-3.64-.19-4.06-7.55-4.11-7.82-8.79-.18-3.16,3.18-5.78,7.3-5.97,2.48-.12,4.83.71,4.91,2.71.08,1.86-1.76,2.73-3.19,2.8-1.21.05-1.77-.38-1.79-.76,0-.12.06-.22.19-.25.97-.34,1.52-.87,1.48-1.69-.04-.92-.93-1.39-2-1.33-1.66.08-3.56,1.22-3.46,3.15.19,3.67,7.6,3.65,7.81,8.58Z" fill="#6abc46"/>
        <path d="M78.91,148.37c.04,1.28-.99,2.98-1.67,3.77-.02.19-.01.41,0,.6.02.72.37,1.05.79,1.04.46-.01,1.18-.18,2.78-2.57.09-.15.24-.22.36-.23.17,0,.32.14.33.35,0,.12-.02.24-.11.41-1.75,3.31-3.34,4.13-4.6,4.17-.99.03-1.62-.53-1.97-1.36-1.05,1.2-2.06,1.5-2.89,1.53-1.55.06-2.43-1.14-2.49-2.63-.05-1.11.23-2.67.67-3.9.55-1.52,1.21-2.81,2.12-2.84.88-.03,1.42.6,1.45,1.4.02.43-.17.68-.54,1.37-.73,1.41-1.08,2.46-1.05,3.42.04,1.01.44,1.24.87,1.22.58-.02,1.11-.35,1.6-.85,0,0,0-.01,0-.02-.04-1.11.32-2.67.77-3.9.56-1.52,1.39-2.39,2.3-2.42.88-.03,1.25.62,1.27,1.41ZM72.64,144.05c-.03-.94.77-1.82,1.74-1.85.74-.03,1.23.51,1.25,1.19.03,1.01-.75,1.84-1.69,1.87-.71.03-1.28-.51-1.3-1.21ZM76.29,144.05c-.03-.94.78-1.81,1.75-1.84.74-.02,1.23.52,1.24,1.2.03,1.01-.76,1.83-1.7,1.86-.71.02-1.27-.52-1.29-1.22Z" fill="#6abc46"/>
        <path d="M85.62,144.24c-.42.76-.92,1.81-1.34,3,.46-.13.88-.26,1.24-.44,1.07-.53,1.16-.94,1.38-.94.27,0,.62.3.63.96.02,1.14-2.99,1.67-3.83,2.37-.3.26-.37,1.99-.35,2.96.02,1.06.33,1.64.87,1.62.46-.01,1.33-.32,2.94-2.69.09-.15.24-.22.36-.22.17,0,.32.14.32.36,0,.12-.02.24-.11.41-1.77,3.29-3.3,4.1-4.78,4.13-1.46.03-2.29-1.15-2.33-2.84-.02-.58.03-1.5.2-2.42.09-.46.19-1,.33-1.53-.59-.25-1.02-.72-1.04-1.23,0-.17.06-.32.19-.32.17,0,.45.21,1.16.19.02,0,.03,0,.05,0,.41-1.41.91-2.83,1.48-3.95.75-1.49,1.38-2.3,2.25-2.32.57-.01,1.34.41,1.36,1.21,0,.29-.55.94-.98,1.71Z" fill="#6abc46"/>
        <path d="M109.74,139.58c0,.8-.86,1.27-2.02,1.26-.3,0-.59-.03-.89-.08-2.67,2.23-4.71,6.84-4.72,10.08,0,2.17.89,3.67,2.66,3.68.87,0,1.99-.35,3.08-1.6,0-.05,0-.07,0-.12,0-.27.03-.6.06-.87.45-3.38,2.94-11.94,6.13-11.88,1.06.02,1.37.94,1.35,2.06-.04,2.25-2.34,6.75-4.43,9.96-.02,1.35.34,1.87.8,1.87.66,0,1.71-.53,3.41-2.84.1-.14.25-.21.37-.21.17,0,.31.15.31.37,0,.12-.03.27-.13.41-1.89,3.22-3.66,4.74-5.6,4.72-.97-.01-1.64-.67-1.99-1.64-1.45,1.7-3.37,2.7-5.16,2.7-2.86,0-4.43-2.49-4.44-5.63-.01-4.47,3.17-9.38,5.88-11.62-1.06-.27-2.18-.52-3.32-.52-2.6,0-4.48,1.29-4.47,2.96,0,.87.52,1.45,1.29,1.44.59,0,.98-.29,1.18-.46.1-.07.17-.12.27-.12.17,0,.35.17.35.6,0,1.14-1.27,2.83-3.31,2.84-1.77,0-3.18-1.23-3.2-3.24-.03-2.92,3-5.31,7.74-5.3,1.81,0,3.42.37,4.96.62.5-.29,1.25-.6,2.14-.59.99,0,1.71.41,1.7,1.15ZM108.43,136.5c.01-1.04.97-1.97,2.04-1.96.82.01,1.36.65,1.35,1.4-.02,1.11-.95,1.99-1.99,1.98-.82,0-1.41-.64-1.4-1.42ZM112.98,136.8c.02-1.04.98-1.97,2.08-1.95.82.02,1.33.65,1.32,1.4-.02,1.11-.96,1.99-2,1.97-.79-.01-1.41-.65-1.39-1.43Z" fill="#6abc46"/>
        <path d="M116.14,148.72c-.46-.47-.76-1.08-.75-1.76.02-.97.67-1.78,1.49-1.76.62.01,1,.6.97,1.5,0,.29-.09.72-.25,1.25.12,0,.18,0,.29,0,.71.02,1.62-.2,2.02-.48.25-.19.45-.25.6-.25.39.01.94.53.93,1.14-.01.36-.22.72-.52,1.17-.59.88-1.43,2.19-1.46,3.39-.01.46.25.68.54.69.34,0,.99-.05,2.72-2.34.1-.14.25-.21.37-.21.17,0,.31.15.31.37,0,.12-.03.24-.13.41-1.93,3.21-3.3,3.94-4.61,3.91-1.21-.03-2.09-.89-2.07-2.15.02-1.16,1.06-2.68,1.86-3.61-.54-.13-1.07-.36-1.53-.64-.41.91-.94,1.84-1.4,2.61-.18.26-.59.42-.89.42-.17,0-.27-.05-.27-.17,0-.1.1-.24.13-.26.6-.81,1.28-2.03,1.63-3.23Z" fill="#6abc46"/>
        <path d="M131.92,148.71c-.05,1.28-1.2,2.9-1.93,3.65-.03.19-.04.41-.05.6-.03.72.3,1.08.71,1.09.46.02,1.19-.1,2.95-2.37.1-.14.25-.21.38-.2.17,0,.31.16.3.38,0,.12-.04.24-.14.41-1.97,3.18-3.62,3.88-4.88,3.84-.99-.04-1.58-.64-1.86-1.5-1.13,1.12-2.16,1.35-2.98,1.33-1.55-.05-2.34-1.3-2.3-2.8.03-1.11.42-2.65.94-3.84.65-1.48,1.41-2.71,2.32-2.68.88.03,1.38.7,1.35,1.5-.02.43-.22.67-.63,1.33-.83,1.35-1.25,2.38-1.28,3.34-.03,1.01.35,1.27.79,1.28.58.02,1.13-.28,1.66-.74,0,0,0-.01,0-.02.04-1.11.51-2.64,1.04-3.83.66-1.47,1.56-2.29,2.47-2.25.88.04,1.2.7,1.17,1.5ZM125.98,143.96c.03-.94.9-1.76,1.86-1.73.74.03,1.19.6,1.16,1.28-.04,1.01-.88,1.78-1.81,1.75-.71-.03-1.24-.6-1.21-1.3ZM129.62,144.21c.04-.94.91-1.76,1.87-1.72.74.03,1.19.61,1.16,1.28-.04,1.01-.89,1.78-1.82,1.74-.71-.03-1.23-.6-1.21-1.3Z" fill="#6abc46"/>
        <path d="M135.36,153.48c1.29-2.6,3.83-6.3,6.02-6.18.69.04,1.47.54,1.4,1.77-.11,1.93-1.79,3.7-1.85,4.81-.02.36.16.59.38.6.34.02,1-.02,2.79-2.26.11-.14.26-.2.38-.2.17,0,.31.16.3.38,0,.12-.04.24-.15.4-2.02,3.15-3.38,3.85-4.57,3.79-1.14-.06-1.94-.97-1.88-2.23.08-1.67,1.44-3.36,1.49-4.23,0-.17-.08-.29-.23-.3-.59-.03-2.19,1.97-3.14,4.18-.6,1.4-.79,2.36-1.59,2.32-.85-.04-1.31-.54-1.57-1.28-.11-.32-.15-1.07-.12-1.7.02-.58.21-1.44.44-2.35.56-2.23,1.17-3.19,2.1-3.15.73.03,1.29.71,1.26,1.41-.04.75-1.04,1.89-1.45,4.21Z" fill="#6abc46"/>
        <path d="M147.16,150.94c-.28.98-.48,1.91-.53,2.65-.05.87.13,1.41.67,1.45.46.03,1.35-.21,3.16-2.44.11-.14.26-.2.38-.19.17.01.31.17.29.38,0,.12-.04.24-.15.4-2.04,3.13-3.64,3.81-5.11,3.72-1.38-.08-2.22-1.15-2.1-3.22.2-3.47,4.37-14.08,7.71-13.86,1.21.08,1.68.96,1.57,2.53-.16,2.29-2.29,5.92-5.89,8.58ZM147.7,149.38c2.53-2.43,3.66-4.82,3.72-5.64.02-.24-.05-.39-.25-.4-.59-.04-2.32,3-3.47,6.05Z" fill="#6abc46"/>
        <path d="M159.53,150.28c.09-.23.25-.32.42-.31.24.02.52.28.49.69,0,.12-.05.29-.13.43-1.5,3.11-3.9,6.53-7.58,6.27-1.65-.11-3.32-1.36-3.16-3.68.19-2.92,2.91-5.72,5.63-5.52,1.54.11,2.35,1.12,2.27,2.2-.12,1.64-2.14,3.08-5.09,3.24.08,1.02.51,1.83,1.6,1.9,1.82.13,4.17-1.36,5.56-5.23ZM152.39,152.64c1.41-.27,2.81-1.33,2.91-2.58.04-.51-.22-.74-.46-.76-.88-.06-2.18,1.64-2.44,3.34Z" fill="#6abc46"/>
        <path d="M160.74,150.16c.12,0,.18.01.29.02.71.06,1.63-.11,2.05-.37.26-.17.46-.23.61-.22.39.03.91.59.86,1.19-.03.36-.26.71-.59,1.14-.64.84-1.55,2.1-1.65,3.31-.04.46.21.7.5.72.34.03,1,0,2.85-2.18.11-.14.26-.2.38-.18.17.01.3.17.28.39-.01.12-.05.24-.16.4-2.11,3.09-3.52,3.75-4.83,3.64-1.21-.1-2.04-1.01-1.94-2.26.09-1.16,1.21-2.62,2.07-3.5-1.53-.49-3.01-1.67-2.89-3.21.07-.96.77-1.73,1.58-1.67.61.05.96.66.89,1.55-.02.29-.13.72-.32,1.23Z" fill="#6abc46"/>
        <path d="M169.84,150.82c-.04.43-.28.65-.71,1.29-.86,1.31-1.31,2.53-1.38,3.35-.06.72.23,1.02.57,1.05.46.04,1.2-.04,3.07-2.22.11-.14.26-.19.39-.18.17.02.3.17.28.39-.01.12-.05.24-.16.4-2.13,3.07-3.81,3.7-5.07,3.59-1.43-.13-2-1.41-1.87-2.9.1-1.11.57-2.62,1.16-3.78.74-1.44,1.56-2.63,2.47-2.55.88.08,1.34.78,1.26,1.57ZM168.78,146.5c.1-1.08,1.14-1.86,2.29-1.76,1.18.11,1.57.97,1.51,1.67-.1,1.08-1.2,1.73-2.36,1.62-.88-.08-1.52-.72-1.44-1.54Z" fill="#6abc46"/>
      </g>
    </g>
  </g>
</svg>