<?xml version="1.0" encoding="UTF-8"?>
<svg id="b" data-name="Layer 2" xmlns="http://www.w3.org/2000/svg" viewBox="0 0 413.22 321.65">
  <g id="c" data-name="Layer 1">
    <g>
      <path d="M51.44,268.27c43.05-12.38,96.8-19.71,155.1-19.66,65.43.05,125.11,9.39,170.35,24.7,28.35-30.03,38.91-89.95,35.8-114.95-5.37-43.27-3.75-84.05-60.23-110.83-13.86-6.57-25.02-23.13-37.08-32.27-16.59-12.58-29.87-16.38-50.97-14.99-26.65,1.75-36.47,11.92-56.98,25.27-10.33,6.72-11.37,2.73-21.57.63-14.12-2.91-30.97,5.45-41.68,14.23-10.25,8.41-17.26,22.34-29.26,28.19-6.71,3.27-11.68,1.75-18.42,1.23C31.01,64.79,6.93,98.91,5.06,112.48c-3.26,23.64-8.58,62.4-1.72,85.97,9.36,32.17,27.67,56.66,48.1,69.81Z" fill="#235a30"/>
      <path d="M383.57,99.04c-33.41-5.19-51.27-20.12-64.12-29.82-11.1-8.37-20.86-18.37-32.08-26.61-10.65-7.82-24.18-15.68-37.86-12.2-4.51,1.15-8.76,3.22-12.64,5.76-7.77,5.08-14.1,11.83-20.43,18.52-6.32,6.68-12.89,13.88-22.95,12.98-4.87-.44-9.37-2.67-13.91-4.49-4.83-1.93-9.34-2.91-14.55-1.77-12.15,2.66-18.11,15.25-25.8,23.8-5.72,6.37-8.69,11.45-23.57,13.73,10.36,1.2,16.83-.49,23.36-5.83,8.45-6.9,16.17-19.67,27.92-20.99,9.92-1.11,20.44,6.07,28.29,10.51,15.15,8.57,29.8,11.21,46.19,5.3-10.35,1.48-23.68-.91-26.19-7.87-1.1-3.07-.42-6.72,1.5-9.35,9.88-13.5,22.3-22.93,28.67-25.8,12.38-5.59,23.93-.06,33.93,7.48,31.45,23.73,57.3,47.1,104.24,46.65Z" fill="#6abc46"/>
      <g>
        <path d="M277.31,138.13c.85-4.12,4.55-8.96,8.78-9.92,2.59-.59,11.93-.71,12.83,2.42l.06,66.86c-.71,8.13-6.91,9.71-14.1,8.97-6.57-.67-8.56-5.58-8.77-11.55-.88.02-4.09,4.68-5.3,5.78-10.54,9.55-28.13,8.28-39.22.39-17.47-12.41-19.48-42.39-8.2-59.45,11.95-18.06,39.85-20.31,53.93-3.5ZM255.51,145.17c-23.63,2.42-22.78,42.03.34,44.13,7.95.72,16.94-3.86,19.59-11.68,1.21-3.57,1.48-15.99.94-19.89-.18-1.33-2.35-4.85-3.26-5.97-4.18-5.16-11.18-7.25-17.62-6.58Z" fill="#fff"/>
        <path d="M317.7,146.01c-7.73-1.29-8.28-14.86-.79-16.96,18.83-.89,38.09-1.06,56.9.15,5.03,1.94,5.72,7.64,4.39,12.27-1.01,3.52-7.09,9.81-9.72,12.91-9.32,10.96-19.2,21.48-28.42,32.53-.12.94.04.6.68.69,8.83,1.19,28.5-2.09,35.58,1.39,5.35,2.64,5.14,12.99-.24,15.51-1.64.77-3.97,1.02-5.78,1.14-16.63,1.1-34.5-.9-51.26-.07-8.67-.89-9.52-9.86-6.15-16.32,10.56-13.82,24.15-26.46,34.57-40.22.66-.87,1.54-1.79,1.4-2.99l-31.16-.03Z" fill="#fff"/>
        <path d="M86.79,97.92c.97-1.01,5.07-1.88,6.56-1.97,9.37-.57,14.13,4.88,15.42,13.7l-.02,88.13c-.83,4.8-3.2,7.45-8.14,8.02-5.5.64-12.39-.03-13.9-6.32-1.34-32.93-.13-66.13-.52-99.15.06-.74.07-1.86.6-2.4Z" fill="#fff"/>
        <path d="M68.65,137.24c-.69-8.09-4.96-10.06-12.56-9.8-5.55.19-9.33,2.68-10.03,8.46,1.15,19.67-1.77,41.49-.12,60.91.68,7.97,6.58,9.62,13.64,9.01,5.4-.46,8.13-3.32,8.94-8.6-1.14-19.37,1.75-40.87.12-59.99Z" fill="#fff"/>
        <path d="M180.78,190.68c-4.59,5.27-9.55,9.29-16.54,10.93-17.64,4.13-35.58-4.85-41.14-22.32-9.45-29.73,12.64-60.5,44.79-51.17,5.61,1.63,9.77,4.79,14.07,8.55,3.46-7.29,8.11-9.67,16.18-8.76,3.05.34,5.49,1.13,5.79,4.37,1.85,20.37-1.49,43.55-.06,64.21.81,32.42-23.89,43.29-52.78,38.81-9.31-1.44-23.65-7.33-24.77-18.17-.47-4.51,4.09-12.64,8.95-11.73.66.12,5.31,5.6,6.74,6.68,8.85,6.74,29.38,8.22,36.06-2.15.72-1.12,2.68-5.92,2.69-7.01v-12.23ZM159.48,144.62c-14.91,1.79-20.48,18.97-14.02,31.27s28.28,11.66,34.04-1.06c1.54-3.4,1.99-15.73,1.3-19.45-.16-.88-1.85-3.19-2.51-3.95-4.48-5.18-12.09-7.61-18.8-6.81Z" fill="#fff"/>
      </g>
      <g>
        <path d="M104.73,305.01c.37,8.64-7.86,16-19.11,16.6-10.1.54-16.62-4.79-17-10.89-.25-4.04,2.35-7.6,6.32-7.83,2.38-.14,4.3,1.33,4.37,2.48.06,1.15-1.83,2.22-1.64,5.48.23,3.99,3.59,7.48,9.34,7.18,5.39-.28,9.41-4.04,9.17-9.12-.48-10.15-18.9-10.28-19.57-21.99-.45-7.91,7.95-14.45,18.26-14.94,6.21-.29,12.08,1.77,12.28,6.78.19,4.65-4.41,6.84-7.99,7-3.02.14-4.43-.94-4.48-1.91-.01-.3.16-.55.46-.63,2.44-.84,3.8-2.17,3.71-4.23-.1-2.3-2.33-3.47-5-3.34-4.15.2-8.91,3.05-8.66,7.88.48,9.18,19.01,9.14,19.54,21.47Z" fill="#fff"/>
        <path d="M130.91,295.42c.09,3.2-2.48,7.45-4.19,9.44-.05.49-.03,1.03-.01,1.51.06,1.81.93,2.63,1.97,2.6,1.16-.03,2.96-.45,6.96-6.43.23-.37.6-.56.9-.57.43-.01.8.34.82.89,0,.3-.05.61-.28,1.04-4.37,8.28-8.36,10.33-11.52,10.43-2.49.08-4.05-1.32-4.92-3.41-2.64,2.99-5.16,3.75-7.22,3.83-3.88.15-6.07-2.84-6.23-6.59-.12-2.78.57-6.69,1.68-9.75,1.37-3.81,3.04-7.02,5.31-7.11,2.21-.08,3.56,1.5,3.63,3.5.04,1.09-.43,1.71-1.35,3.44-1.83,3.52-2.71,6.15-2.62,8.57.1,2.54,1.09,3.1,2.19,3.06,1.46-.05,2.77-.89,4.01-2.14,0-.02,0-.04,0-.06-.1-2.78.8-6.69,1.93-9.75,1.4-3.8,3.49-5.98,5.76-6.05,2.21-.07,3.12,1.54,3.18,3.54ZM115.23,284.62c-.09-2.36,1.94-4.55,4.35-4.63,1.85-.06,3.07,1.29,3.13,2.98.08,2.54-1.88,4.6-4.22,4.68-1.79.06-3.19-1.28-3.26-3.03ZM124.36,284.61c-.08-2.36,1.96-4.54,4.37-4.61,1.85-.05,3.07,1.3,3.11,3,.07,2.54-1.9,4.59-4.24,4.66-1.78.05-3.18-1.29-3.24-3.04Z" fill="#fff"/>
        <path d="M147.7,285.09c-1.05,1.89-2.31,4.52-3.35,7.51,1.16-.33,2.2-.65,3.11-1.09,2.68-1.32,2.9-2.35,3.46-2.36.68-.01,1.55.76,1.58,2.39.05,2.84-7.48,4.17-9.58,5.94-.76.64-.93,4.98-.87,7.4.06,2.66.83,4.09,2.16,4.06,1.16-.03,3.32-.8,7.37-6.74.24-.37.6-.55.91-.56.43,0,.8.35.81.89,0,.3-.05.61-.29,1.03-4.44,8.24-8.27,10.26-11.97,10.34-3.64.09-5.73-2.88-5.84-7.11-.04-1.45.08-3.75.51-6.06.22-1.16.49-2.49.82-3.83-1.49-.63-2.56-1.81-2.6-3.08-.01-.42.16-.79.47-.8.43-.01,1.12.51,2.9.47.05,0,.07,0,.12,0,1.02-3.53,2.28-7.08,3.7-9.89,1.88-3.73,3.46-5.76,5.62-5.81,1.42-.03,3.36,1.02,3.4,3.02.01.73-1.37,2.35-2.45,4.28Z" fill="#fff"/>
        <path d="M208.06,273.43c-.02,2-2.14,3.18-5.05,3.15-.74,0-1.48-.07-2.23-.2-6.67,5.57-11.8,17.12-11.81,25.22-.01,5.44,2.23,9.19,6.67,9.22,2.19.01,4.99-.87,7.7-3.99,0-.12,0-.18,0-.3,0-.66.08-1.51.14-2.18,1.12-8.46,7.36-29.87,15.35-29.73,2.66.05,3.43,2.36,3.37,5.14-.11,5.62-5.86,16.89-11.1,24.92-.05,3.39.85,4.67,2,4.69,1.64.02,4.27-1.33,8.54-7.11.25-.36.62-.53.93-.53.43,0,.79.38.78.92,0,.3-.07.66-.33,1.02-4.74,8.07-9.15,11.87-14.01,11.81-2.42-.03-4.1-1.68-4.99-4.11-3.63,4.26-8.43,6.76-12.91,6.75-7.15-.02-11.1-6.23-11.12-14.09-.03-11.19,7.94-23.48,14.73-29.07-2.66-.68-5.45-1.29-8.3-1.29-6.51,0-11.21,3.23-11.18,7.4.01,2.18,1.31,3.62,3.22,3.61,1.48,0,2.46-.73,2.96-1.16.25-.18.43-.3.68-.3.43,0,.87.42.87,1.51,0,2.84-3.19,7.08-8.28,7.1-4.42.02-7.95-3.08-8-8.1-.07-7.32,7.51-13.28,19.37-13.27,4.53,0,8.57.93,12.41,1.56,1.25-.72,3.12-1.49,5.35-1.47,2.48.02,4.27,1.01,4.25,2.89ZM204.79,265.71c.03-2.6,2.42-4.94,5.11-4.9,2.06.03,3.41,1.62,3.38,3.49-.04,2.78-2.37,4.99-4.98,4.95-2.05-.02-3.53-1.61-3.51-3.55ZM216.17,266.47c.04-2.6,2.45-4.92,5.2-4.87,2.06.04,3.34,1.64,3.3,3.51-.06,2.78-2.4,4.97-5.01,4.92-1.99-.04-3.52-1.63-3.49-3.57Z" fill="#fff"/>
        <path d="M224.09,296.31c-1.14-1.17-1.91-2.7-1.87-4.39.05-2.42,1.69-4.44,3.72-4.4,1.54.03,2.49,1.51,2.44,3.74-.02.73-.23,1.81-.62,3.13.29,0,.44,0,.74.02,1.78.04,4.06-.51,5.06-1.21.63-.47,1.12-.64,1.49-.63.98.03,2.36,1.33,2.32,2.85-.03.91-.54,1.8-1.31,2.93-1.47,2.2-3.57,5.47-3.64,8.5-.03,1.15.63,1.71,1.36,1.73.85.02,2.49-.12,6.81-5.86.25-.36.63-.53.93-.52.43.01.78.39.77.93,0,.3-.08.6-.34,1.02-4.82,8.02-8.26,9.87-11.53,9.79-3.03-.07-5.24-2.24-5.17-5.38.06-2.9,2.65-6.72,4.66-9.03-1.34-.33-2.67-.91-3.82-1.6-1.03,2.28-2.36,4.61-3.5,6.52-.44.66-1.49,1.06-2.22,1.05-.43,0-.67-.13-.66-.44,0-.24.26-.6.32-.66,1.5-2.03,3.21-5.08,4.07-8.09Z" fill="#fff"/>
        <path d="M263.59,296.26c-.13,3.2-2.99,7.26-4.84,9.13-.08.48-.1,1.02-.12,1.51-.07,1.81.75,2.69,1.78,2.73,1.16.05,2.98-.25,7.39-5.92.26-.35.63-.52.94-.5.43.02.78.4.75.94-.01.3-.09.6-.35,1.01-4.94,7.95-9.06,9.72-12.22,9.6-2.49-.1-3.95-1.6-4.67-3.74-2.84,2.8-5.41,3.38-7.47,3.32-3.88-.12-5.86-3.26-5.75-7.01.08-2.78,1.04-6.63,2.36-9.61,1.64-3.7,3.52-6.79,5.79-6.72,2.21.07,3.45,1.75,3.38,3.74-.04,1.09-.55,1.67-1.59,3.33-2.07,3.38-3.13,5.95-3.21,8.37-.08,2.54.87,3.17,1.97,3.21,1.46.05,2.82-.69,4.15-1.85,0-.02,0-.04,0-.06.1-2.78,1.27-6.62,2.61-9.59,1.66-3.69,3.9-5.73,6.17-5.63,2.21.09,3,1.76,2.92,3.75ZM248.71,284.39c.08-2.36,2.25-4.4,4.66-4.32,1.85.07,2.98,1.5,2.91,3.19-.09,2.54-2.2,4.46-4.54,4.37-1.79-.06-3.09-1.5-3.03-3.25ZM257.82,285.02c.09-2.36,2.27-4.39,4.68-4.29,1.85.08,2.97,1.51,2.9,3.21-.11,2.54-2.22,4.45-4.56,4.35-1.78-.07-3.09-1.51-3.02-3.26Z" fill="#fff"/>
        <path d="M272.18,308.2c3.23-6.51,9.59-15.77,15.06-15.47,1.72.09,3.68,1.35,3.51,4.43-.27,4.83-4.49,9.26-4.64,12.04-.05.91.41,1.48.96,1.51.85.05,2.49-.05,6.98-5.67.26-.35.64-.51.94-.49.43.02.77.41.74.95-.02.3-.1.6-.36,1.01-5.05,7.88-8.47,9.63-11.44,9.48-2.85-.15-4.86-2.43-4.71-5.57.21-4.17,3.61-8.42,3.72-10.59.02-.42-.21-.74-.57-.76-1.47-.08-5.47,4.94-7.86,10.45-1.51,3.49-1.98,5.9-3.98,5.81-2.12-.1-3.28-1.36-3.93-3.2-.27-.8-.37-2.68-.3-4.25.06-1.45.52-3.61,1.11-5.88,1.41-5.57,2.93-7.98,5.26-7.88,1.84.08,3.23,1.79,3.15,3.54-.09,1.87-2.62,4.72-3.62,10.55Z" fill="#fff"/>
        <path d="M301.71,301.86c-.7,2.44-1.21,4.77-1.33,6.64-.13,2.17.33,3.53,1.67,3.62,1.15.07,3.37-.52,7.91-6.1.27-.35.64-.5.95-.48.43.03.77.41.73.96-.02.3-.1.6-.37,1.01-5.12,7.84-9.1,9.53-12.8,9.3-3.45-.21-5.55-2.87-5.25-8.06.5-8.69,10.93-35.23,19.29-34.67,3.04.2,4.2,2.41,3.93,6.33-.39,5.73-5.73,14.81-14.73,21.46ZM303.05,297.95c6.34-6.09,9.17-12.07,9.3-14.13.04-.6-.12-.98-.61-1.01-1.48-.1-5.82,7.5-8.69,15.14Z" fill="#fff"/>
        <path d="M332.66,300.21c.23-.59.62-.8,1.05-.77.61.05,1.3.71,1.22,1.73-.02.3-.12.72-.33,1.07-3.75,7.77-9.76,16.33-18.97,15.69-4.12-.29-8.3-3.41-7.92-9.2.48-7.3,7.28-14.31,14.09-13.82,3.86.28,5.89,2.8,5.69,5.51-.31,4.1-5.36,7.71-12.73,8.12.19,2.56,1.27,4.57,4,4.77,4.55.32,10.45-3.41,13.91-13.09ZM314.79,306.11c3.54-.66,7.04-3.32,7.27-6.46.09-1.27-.54-1.86-1.15-1.9-2.21-.16-5.45,4.1-6.12,8.36Z" fill="#fff"/>
        <path d="M335.7,299.9c.29.02.44.04.73.06,1.77.14,4.09-.27,5.13-.92.65-.43,1.16-.57,1.53-.54.98.08,2.28,1.47,2.15,2.97-.08.9-.64,1.77-1.47,2.85-1.59,2.11-3.88,5.26-4.12,8.27-.09,1.15.53,1.74,1.26,1.8.85.07,2.49.02,7.14-5.46.27-.34.66-.49.96-.46.43.04.76.43.71.97-.03.3-.11.6-.39,1-5.28,7.73-8.81,9.38-12.08,9.12-3.03-.25-5.1-2.53-4.86-5.67.23-2.89,3.03-6.56,5.17-8.75-3.83-1.22-7.54-4.17-7.24-8.03.19-2.41,1.94-4.34,3.97-4.18,1.54.12,2.4,1.65,2.22,3.88-.06.72-.33,1.79-.8,3.09Z" fill="#fff"/>
        <path d="M358.48,301.56c-.1,1.08-.71,1.63-1.78,3.24-2.14,3.27-3.27,6.32-3.46,8.37-.16,1.81.57,2.54,1.42,2.62,1.15.1,2.99-.1,7.68-5.54.28-.34.66-.48.96-.46.43.04.76.44.71.98-.03.3-.12.6-.4,1-5.33,7.69-9.55,9.25-12.69,8.97-3.57-.32-5-3.53-4.68-7.27.24-2.77,1.42-6.56,2.9-9.46,1.84-3.6,3.91-6.58,6.17-6.37,2.21.2,3.34,1.94,3.16,3.93ZM355.82,290.75c.24-2.71,2.84-4.66,5.74-4.4,2.96.27,3.93,2.44,3.77,4.18-.26,2.71-3.01,4.33-5.89,4.06-2.21-.2-3.8-1.8-3.61-3.85Z" fill="#fff"/>
      </g>
    </g>
  </g>
</svg>